<svg width="136" height="32" viewBox="0 0 136 32" xmlns="http://www.w3.org/2000/svg" xmlns:xlink="http://www.w3.org/1999/xlink">
    <defs>
        <path id="a" d="M0 35.965h140.985V0H0z"/>
    </defs>
    <g fill="none" fill-rule="evenodd">
        <g transform="translate(-5 -2)">
            <path d="M75.252 9.18H75.216l-.912 3.035h1.86l-.912-3.034zm1.943 6.117-.432-1.283h-3.082l-.468 1.283h-2.435l3.562-8.875h1.787l3.526 8.875h-2.458zM83.989 8.413h-.828v2.47h.804c.852 0 1.487-.36 1.487-1.27 0-.877-.683-1.2-1.463-1.2zm1.248 6.884-2.051-2.866h-.025v2.866h-2.17V6.422h2.806c.936 0 1.967.023 2.735.636.73.587 1.09 1.5 1.09 2.422 0 1.368-.802 2.567-2.206 2.794l2.41 3.023h-2.59zM92.533 8.413v6.884h-2.267V8.413h-1.751v-1.99h5.757v1.99zM95.63 15.297V6.422h4.93v1.991H97.8v1.379h2.675v1.991H97.8v1.523h2.76v1.991zM104.916 15.465c-1.787 0-3.201-.924-3.201-2.818v-.288h2.254c0 .576.264 1.211.924 1.211a.858.858 0 0 0 .864-.851c0-.576-.48-.768-.949-.972-.264-.12-.528-.228-.79-.336-1.153-.479-2.171-1.151-2.171-2.543 0-1.655 1.595-2.614 3.106-2.614.862 0 1.834.324 2.398 1.008.457.563.564 1.055.588 1.751h-2.242c-.073-.492-.24-.864-.817-.864-.395 0-.778.276-.778.696 0 .132.011.264.084.371.214.36 1.378.816 1.75.983 1.175.54 2.074 1.152 2.074 2.543 0 1.86-1.343 2.723-3.094 2.723M113.256 9.18H113.22l-.912 3.035h1.86l-.912-3.034zm1.943 6.117-.432-1.283h-3.082l-.468 1.283h-2.435l3.562-8.875h1.787l3.526 8.875H115.2zM124.511 15.297 121.13 9.9l-.024.012.06 5.385h-2.17V6.422h1.954l3.43 5.577.024-.024-.096-5.553h2.171v8.875z" fill="#FEFEFE"/>
            <mask id="b" fill="#fff">
                <use xlink:href="#a"/>
            </mask>
            <path d="M128.522 15.297h2.267V6.422h-2.267v8.875zm.48-9.307-.564-1.175 2.879-1.547.636 1.415-2.951 1.307zM136.584 9.18H136.548l-.912 3.035h1.86l-.912-3.034zm1.943 6.117-.432-1.283h-3.082l-.468 1.283h-2.435l3.562-8.875h1.787l3.526 8.875h-2.458zM77.375 26.505c-.671.684-1.535.96-2.482.96-.924 0-1.907-.264-2.555-.947-.804-.852-.887-1.608-.887-2.735v-5.361h2.266v5.361c0 .803.132 1.691 1.152 1.691 1.067 0 1.127-.852 1.127-1.691v-5.361h2.267v5.361c0 1.055-.12 1.954-.888 2.722M83.269 20.413h-.827v2.47h.803c.852 0 1.487-.36 1.487-1.27 0-.877-.683-1.2-1.463-1.2zm1.248 6.884-2.051-2.866h-.024v2.866H80.27v-8.875h2.806c.936 0 1.967.023 2.735.636.73.587 1.09 1.5 1.09 2.422 0 1.368-.802 2.567-2.206 2.794l2.41 3.023h-2.59zM94.535 26.505c-.67.684-1.535.96-2.482.96-.924 0-1.907-.264-2.555-.947-.804-.852-.887-1.608-.887-2.735v-5.361h2.266v5.361c0 .803.132 1.691 1.152 1.691 1.067 0 1.127-.852 1.127-1.691v-5.361h2.267v5.361c0 1.055-.12 1.954-.888 2.722M101.76 27.477c-2.615 0-4.713-2.026-4.713-4.653 0-2.662 2.146-4.57 4.75-4.57 1.918 0 3.897 1.247 4.437 3.143h-2.543a2.179 2.179 0 0 0-1.955-1.151c-1.45 0-2.423 1.174-2.423 2.578 0 1.45.924 2.663 2.435 2.663.971 0 1.847-.445 2.123-1.428h-2.65v-1.811h5.264c.012.156.012.312.012.468 0 2.722-2.015 4.76-4.737 4.76M113.999 26.505c-.671.684-1.535.96-2.482.96-.924 0-1.907-.264-2.555-.947-.804-.852-.887-1.608-.887-2.735v-5.361h2.266v5.361c0 .803.132 1.691 1.152 1.691 1.067 0 1.127-.852 1.127-1.691v-5.361h2.267v5.361c0 1.055-.12 1.954-.888 2.722M120.312 21.18H120.276l-.912 3.035h1.86l-.912-3.034zm1.943 6.117-.432-1.283h-3.082l-.468 1.283h-2.435l3.562-8.875h1.787l3.526 8.875h-2.458zM129.324 24.07v3.227h-2.267V24.07l-2.65-5.648h2.458l1.32 3.561 1.331-3.56h2.434z" fill="#FEFEFE" mask="url(#b)"/>
        </g>
        <g fill="#FEFEFE">
            <path d="M15.626 9.635H15.5l-3.184 10.598h6.494L15.626 9.635zM22.412 31l-1.508-4.482H10.138L8.504 31H0L12.442 0h6.242L31 31h-8.588zM52.873 28.605C50.507 31.024 47.465 32 44.126 32c-3.253 0-6.718-.933-8.999-3.353C32.296 25.634 32 22.96 32 18.971V0h7.986v18.971c0 2.843.465 5.984 4.056 5.984 3.76 0 3.972-3.013 3.972-5.984V0H56v18.971c0 3.734-.423 6.917-3.127 9.634"/>
        </g>
    </g>
</svg>
