<svg width="254" height="45" viewBox="0 0 254 45" xmlns="http://www.w3.org/2000/svg" xmlns:xlink="http://www.w3.org/1999/xlink">
    <defs>
        <path id="a" d="M0 45h254V0H0z"/>
    </defs>
    <g fill="none" fill-rule="evenodd">
        <path d="M164.572 14.83c0-.698-.176-1.223-.53-1.576-.35-.354-.876-.532-1.57-.532h-.911v4.273h.763c.745 0 1.309-.182 1.684-.546.376-.366.564-.904.564-1.619m.665-.023c0 .883-.243 1.558-.725 2.026-.485.466-1.18.701-2.086.701h-1.492v-5.348h1.652c.837 0 1.489.23 1.953.69.464.46.698 1.105.698 1.931" fill="#FEFEFE"/>
        <mask id="b" fill="#fff">
            <use xlink:href="#a"/>
        </mask>
        <path d="M166.271 17.533h.611v-4.01h-.61v4.01zm-.052-5.096c0-.138.034-.24.103-.306a.364.364 0 0 1 .259-.096c.097 0 .181.032.254.098.07.067.106.17.106.304 0 .137-.035.24-.106.307a.36.36 0 0 1-.254.1.353.353 0 0 1-.259-.1c-.07-.067-.103-.17-.103-.307zM169.954 13.45c.179 0 .342.016.482.045l-.083.562a2.202 2.202 0 0 0-.442-.055 1.08 1.08 0 0 0-.84.396c-.233.264-.349.592-.349.985v2.15h-.61v-4.01h.504l.07.743h.029a1.75 1.75 0 0 1 .542-.602 1.23 1.23 0 0 1 .697-.213M172.659 13.96c-.325 0-.584.103-.776.314-.194.21-.307.5-.342.87h2.112c0-.383-.084-.676-.257-.88-.172-.204-.417-.305-.737-.305m.164 3.648c-.595 0-1.066-.18-1.413-.542-.345-.36-.516-.862-.516-1.503 0-.647.159-1.16.48-1.54.32-.38.75-.571 1.292-.571.507 0 .907.164 1.201.494.296.332.442.767.442 1.31v.384h-2.782c.012.47.133.828.359 1.071.228.243.548.365.96.365.435 0 .866-.09 1.29-.27v.542c-.216.092-.42.157-.612.199-.194.04-.427.06-.7.06M176.892 17.606c-.585 0-1.037-.178-1.358-.536-.321-.357-.48-.863-.48-1.517 0-.669.162-1.188.487-1.553.326-.367.79-.55 1.391-.55.194 0 .388.021.582.063.196.042.348.091.459.146l-.188.517a2.933 2.933 0 0 0-.442-.135 2.123 2.123 0 0 0-.425-.052c-.82 0-1.231.52-1.231 1.557 0 .493.1.872.3 1.135.2.262.497.394.89.394.337 0 .683-.072 1.036-.214v.536c-.271.14-.61.21-1.02.21M180.41 17.606c-.585 0-1.037-.178-1.357-.536-.322-.357-.48-.863-.48-1.517 0-.669.16-1.188.487-1.553.325-.367.79-.55 1.392-.55.194 0 .388.021.582.063.194.042.346.091.457.146l-.188.517a2.933 2.933 0 0 0-.442-.135 2.11 2.11 0 0 0-.423-.052c-.822 0-1.232.52-1.232 1.557 0 .493.099.872.3 1.135.2.262.496.394.889.394.337 0 .684-.072 1.036-.214v.536c-.27.14-.608.21-1.02.21M182.316 17.533h.611v-4.01h-.611v4.01zm-.052-5.096c0-.138.034-.24.103-.306a.364.364 0 0 1 .258-.096c.097 0 .184.032.254.098.071.067.107.17.107.304 0 .137-.036.24-.107.307a.357.357 0 0 1-.254.1.353.353 0 0 1-.258-.1c-.07-.067-.103-.17-.103-.307zM185.274 12.902a7.592 7.592 0 0 0 .704-1.108h.743v.076a5.197 5.197 0 0 1-.482.585 5.66 5.66 0 0 1-.555.54h-.41v-.093zm-.708 2.624c0 .511.103.903.31 1.168.206.27.509.404.91.404.4 0 .704-.133.912-.402.208-.266.311-.657.311-1.17 0-.51-.103-.898-.311-1.163-.208-.264-.514-.397-.92-.397-.4 0-.703.13-.907.391-.204.261-.305.65-.305 1.169zm3.077 0c0 .654-.164 1.162-.497 1.53-.333.367-.79.55-1.375.55-.36 0-.682-.085-.962-.252a1.683 1.683 0 0 1-.65-.725 2.526 2.526 0 0 1-.227-1.103c0-.654.164-1.164.494-1.528.33-.365.786-.548 1.371-.548.565 0 1.013.186 1.347.56.333.375.5.879.5 1.516zM191.406 17.533V14.94c0-.327-.075-.57-.224-.732-.15-.16-.385-.242-.705-.242-.422 0-.732.114-.929.341-.197.226-.294.6-.294 1.123v2.103h-.612v-4.01h.497l.1.549h.03c.124-.197.3-.35.527-.458.226-.109.477-.164.754-.164.489 0 .853.116 1.1.35.244.234.368.605.368 1.117v2.616h-.612zM199.403 17.533h-.716l-2.945-4.488h-.03a20 20 0 0 1 .06 1.448v3.04h-.578v-5.348h.707l2.937 4.47h.03c-.005-.066-.014-.278-.033-.634a10.385 10.385 0 0 1-.018-.767v-3.069h.586v5.348zM201.827 17.105c.38 0 .679-.104.897-.312.219-.206.327-.496.327-.869v-.363l-.613.026c-.487.018-.836.091-1.052.224-.215.133-.323.34-.323.622 0 .218.068.386.202.501.134.113.321.171.562.171zm1.38.428-.121-.572h-.028c-.201.252-.403.424-.603.51-.202.09-.451.135-.75.135-.4 0-.716-.102-.942-.307-.228-.205-.34-.496-.34-.874 0-.81.65-1.234 1.956-1.272l.687-.023v-.249c0-.315-.07-.545-.205-.697-.137-.15-.355-.226-.656-.226-.335 0-.717.104-1.142.309l-.188-.464a2.89 2.89 0 0 1 .656-.252c.236-.062.473-.094.713-.094.48 0 .837.107 1.07.318.23.214.348.555.348 1.022v2.736h-.454zM206.463 17.606c-.585 0-1.037-.178-1.36-.536-.32-.357-.48-.863-.48-1.517 0-.669.162-1.188.488-1.553.325-.367.79-.55 1.392-.55.194 0 .388.021.582.063.194.042.348.091.457.146l-.187.517a2.88 2.88 0 0 0-.442-.135c-.16-.033-.3-.052-.424-.052-.822 0-1.231.52-1.231 1.557 0 .493.098.872.3 1.135.2.262.497.394.89.394.337 0 .682-.072 1.036-.214v.536c-.271.14-.61.21-1.02.21M208.368 17.533h.61v-4.01h-.61v4.01zm-.053-5.096c0-.138.034-.24.103-.306a.361.361 0 0 1 .259-.096c.097 0 .183.032.254.098.07.067.106.17.106.304 0 .137-.035.24-.106.307a.357.357 0 0 1-.254.1.35.35 0 0 1-.259-.1c-.069-.067-.103-.17-.103-.307zM210.617 15.525c0 .512.103.903.31 1.17.207.268.51.402.911.402.4 0 .705-.133.913-.4.206-.267.31-.658.31-1.172 0-.51-.104-.898-.31-1.162-.208-.264-.514-.397-.92-.397-.402 0-.704.13-.907.39-.205.262-.307.651-.307 1.17m3.078 0c0 .653-.165 1.163-.498 1.53-.33.366-.79.55-1.374.55-.36 0-.682-.084-.963-.252a1.666 1.666 0 0 1-.648-.724c-.152-.315-.228-.685-.228-1.105 0-.653.164-1.164.493-1.527.33-.365.787-.547 1.372-.547.565 0 1.014.186 1.347.559.334.374.499.878.499 1.515M217.458 17.533V14.94c0-.327-.076-.57-.225-.732-.15-.16-.385-.242-.705-.242-.424 0-.731.114-.929.341-.197.226-.294.6-.294 1.123v2.103h-.612v-4.01h.497l.1.549h.03a1.25 1.25 0 0 1 .526-.458c.226-.109.479-.164.756-.164.486 0 .853.116 1.099.35.245.234.368.605.368 1.117v2.616h-.611zM220.36 17.105c.381 0 .68-.104.898-.312.219-.206.327-.496.327-.869v-.363l-.613.026c-.486.018-.836.091-1.051.224-.216.133-.324.34-.324.622 0 .218.068.386.202.501.134.113.322.171.562.171zm1.383.428-.123-.572h-.028c-.201.252-.403.424-.603.51-.2.09-.451.135-.75.135-.4 0-.714-.102-.94-.307-.228-.205-.342-.496-.342-.874 0-.81.653-1.234 1.957-1.272l.686-.023v-.249c0-.315-.068-.545-.205-.697-.137-.15-.355-.226-.654-.226-.337 0-.719.104-1.144.309l-.186-.464c.199-.107.416-.191.654-.252.236-.062.473-.094.713-.094.48 0 .838.107 1.07.318.232.214.348.555.348 1.022v2.736h-.453zM223.382 17.533h.611V11.84h-.61zM162.577 25.465c.23 0 .395-.072.49-.216.093-.143.146-.366.152-.666v-.113c0-.366-.053-.626-.159-.78-.105-.156-.27-.233-.497-.233a.484.484 0 0 0-.44.265c-.105.177-.157.429-.157.756 0 .32.053.567.158.735a.504.504 0 0 0 .453.252m-.59 1.13c-.297 0-.557-.083-.779-.252-.222-.168-.396-.416-.516-.742a3.24 3.24 0 0 1-.183-1.145c0-.675.137-1.2.41-1.58a1.31 1.31 0 0 1 1.124-.57c.234 0 .438.046.614.137.175.093.337.25.48.47h.03a6.913 6.913 0 0 1-.07-.974v-1.107h1.452v5.69h-1.087l-.31-.523h-.055c-.248.397-.617.596-1.11.596M167.401 23.278a.596.596 0 0 0-.425.159c-.115.106-.183.271-.2.499h1.238a.71.71 0 0 0-.172-.48.565.565 0 0 0-.44-.178m.085 3.317c-.695 0-1.236-.183-1.62-.55-.386-.368-.578-.89-.578-1.568 0-.7.179-1.236.536-1.612.355-.374.863-.56 1.525-.56.629 0 1.115.163 1.458.488.344.326.515.795.515 1.407v.637h-2.578c.011.23.096.413.256.544.162.131.38.197.659.197.252 0 .485-.024.699-.07.212-.048.442-.13.691-.245v1.03c-.226.113-.46.192-.702.237-.24.042-.528.065-.86.065M174.779 24.335l-.233-.878a26.28 26.28 0 0 1-.35-1.424c-.022.126-.066.33-.132.616-.064.286-.21.846-.432 1.686h1.147zm.566 2.188-.265-1.004h-1.75l-.274 1.004h-1.6l1.758-5.371h1.943l1.781 5.37h-1.593zM179.883 22.305c.124 0 .243.01.355.03l.082.013-.13 1.35a2.145 2.145 0 0 0-.489-.043c-.314 0-.543.07-.685.213-.143.143-.214.348-.214.617v2.038h-1.443v-4.145h1.075l.223.662h.071c.12-.219.29-.396.502-.532.217-.136.432-.203.653-.203M182.873 25.465c.195 0 .426-.046.697-.142v1.043c-.194.082-.38.142-.555.175-.174.037-.38.054-.618.054-.483 0-.833-.118-1.047-.353-.214-.235-.32-.597-.32-1.084V23.45h-.505v-.582l.642-.45.373-.87h.942v.83h1.025v1.072h-1.025v1.613c0 .267.13.402.391.402M186.164 23.278a.596.596 0 0 0-.425.159c-.115.106-.183.271-.202.499h1.238a.7.7 0 0 0-.17-.48.565.565 0 0 0-.441-.178m.085 3.317c-.695 0-1.235-.183-1.62-.55-.385-.368-.577-.89-.577-1.568 0-.7.178-1.236.536-1.612.355-.374.863-.56 1.525-.56.628 0 1.115.163 1.457.488.343.326.515.795.515 1.407v.637h-2.577c.01.23.096.413.256.544.161.131.38.197.659.197.252 0 .485-.024.697-.07a3.44 3.44 0 0 0 .691-.245v1.03a2.597 2.597 0 0 1-.7.237c-.24.042-.528.065-.862.065M192.05 25.25c0 .443-.154.779-.457 1.005-.305.227-.742.34-1.312.34a5.89 5.89 0 0 1-.808-.048 3.54 3.54 0 0 1-.7-.182v-1.146c.222.098.467.179.735.243.266.063.504.095.713.095.312 0 .468-.072.468-.212 0-.074-.043-.138-.131-.196-.086-.058-.34-.17-.76-.335-.385-.157-.652-.334-.804-.533-.153-.198-.23-.45-.23-.754 0-.385.151-.686.45-.9.3-.214.725-.322 1.272-.322.275 0 .534.03.776.09.243.06.494.147.755.261l-.39.921a4.541 4.541 0 0 0-.61-.217 2.049 2.049 0 0 0-.524-.09c-.235 0-.352.058-.352.171 0 .072.04.132.123.184.083.048.32.15.713.304.292.12.51.236.654.35.143.115.25.25.317.406.068.154.102.342.102.565M194.428 25.585a.653.653 0 0 0 .448-.163.545.545 0 0 0 .186-.43v-.322l-.332.016c-.473.018-.711.19-.711.519 0 .254.137.38.41.38zm1.07.937-.277-.549h-.03c-.193.239-.392.404-.593.49-.202.09-.46.132-.78.132-.394 0-.705-.116-.93-.35-.226-.235-.34-.565-.34-.988 0-.441.156-.77.465-.985.31-.217.758-.338 1.346-.365l.696-.022v-.058c0-.342-.168-.513-.508-.513-.305 0-.691.102-1.163.309l-.415-.944c.486-.25 1.102-.373 1.843-.373.537 0 .951.13 1.245.394.293.263.44.63.44 1.104v2.718h-.999zM200.038 26.522v-2.26c0-.275-.039-.483-.119-.624-.082-.14-.21-.21-.386-.21-.244 0-.42.096-.528.288-.107.194-.16.524-.16.993v1.813h-1.443v-4.144h1.088l.18.512h.085c.123-.196.293-.342.511-.439.217-.097.467-.146.75-.146.462 0 .822.133 1.08.398.256.266.384.64.384 1.123v2.696h-1.442zM202.399 26.522h1.442v-4.144H202.4v4.144zm-.111-4.54v-.105c.379-.403.619-.662.72-.78.102-.117.188-.22.255-.314h1.576v.076c-.197.158-.467.356-.811.598a16.49 16.49 0 0 1-.78.525h-.96zM206.427 25.585a.653.653 0 0 0 .448-.163.55.55 0 0 0 .186-.43v-.322l-.332.016c-.473.018-.711.19-.711.519 0 .254.137.38.41.38zm1.069.937-.276-.549h-.03c-.195.239-.393.404-.594.49-.201.09-.461.132-.78.132-.394 0-.704-.116-.93-.35-.226-.235-.34-.565-.34-.988 0-.441.155-.77.465-.985.31-.217.759-.338 1.345-.365l.698-.022v-.058c0-.342-.17-.513-.51-.513-.303 0-.691.102-1.16.309l-.416-.944c.485-.25 1.1-.373 1.842-.373.536 0 .95.13 1.244.394.294.263.44.63.44 1.104v2.718h-.998zM212.626 25.25c0 .443-.154.779-.457 1.005-.305.227-.742.34-1.312.34a5.89 5.89 0 0 1-.808-.048 3.567 3.567 0 0 1-.7-.182v-1.146c.224.098.469.179.737.243.264.063.503.095.712.095.311 0 .467-.072.467-.212 0-.074-.043-.138-.131-.196-.086-.058-.339-.17-.76-.335-.384-.157-.652-.334-.804-.533-.153-.198-.23-.45-.23-.754 0-.385.151-.686.452-.9.3-.214.723-.322 1.27-.322.275 0 .534.03.776.09.243.06.495.147.755.261l-.39.921a4.466 4.466 0 0 0-.61-.217 2.049 2.049 0 0 0-.524-.09c-.235 0-.352.058-.352.171 0 .072.04.132.123.184.083.048.32.15.714.304.291.12.51.236.655.35.141.115.247.25.317.406.067.154.1.342.1.565M214.688 25.429l.051.084c-.237.928-.454 1.613-.648 2.051h-1.028c.07-.336.143-.713.215-1.132.073-.417.122-.753.15-1.003h1.26zM219.042 23.57h.267c.217 0 .392-.06.522-.183.129-.12.193-.29.193-.504 0-.362-.203-.542-.606-.542h-.376v1.23zm2.456-.695c0 .599-.179 1.059-.533 1.384-.354.327-.86.489-1.513.489h-.41v1.775h-1.455v-5.348h1.865c.68 0 1.191.147 1.533.443.34.295.513.713.513 1.257zM224.134 23.278a.596.596 0 0 0-.425.159c-.115.106-.183.271-.2.499h1.238a.71.71 0 0 0-.172-.48.565.565 0 0 0-.44-.178m.086 3.317c-.696 0-1.237-.183-1.622-.55-.384-.368-.577-.89-.577-1.568 0-.7.179-1.236.536-1.612.356-.374.864-.56 1.526-.56.63 0 1.114.163 1.457.488.344.326.515.795.515 1.407v.637h-2.577c.01.23.095.413.255.544.162.131.38.197.659.197.252 0 .485-.024.699-.07.212-.048.442-.13.691-.245v1.03c-.226.113-.46.192-.702.237a4.965 4.965 0 0 1-.86.065M228.697 25.487c.219 0 .377-.067.48-.202.098-.134.147-.36.147-.68v-.17c0-.367-.05-.63-.151-.786-.102-.159-.266-.235-.499-.235-.397 0-.596.354-.596 1.063 0 .36.05.62.15.776.101.156.257.234.47.234m-.587 1.109c-.468 0-.833-.19-1.1-.571-.266-.38-.398-.903-.398-1.57 0-.673.137-1.2.408-1.58.272-.38.642-.57 1.113-.57.503 0 .882.196 1.14.585h.028l.107-.512h1.245v5.942h-1.441v-1.715a9.8 9.8 0 0 1 .045-.606h-.045c-.236.398-.603.597-1.102.597M234.55 26.522l-.18-.516h-.086a1.15 1.15 0 0 1-.504.437 1.742 1.742 0 0 1-.755.153c-.46 0-.818-.133-1.073-.398-.256-.264-.384-.638-.384-1.12v-2.7h1.441v2.265c0 .27.037.474.116.614.078.14.204.208.38.208.25 0 .428-.098.533-.292.104-.194.158-.52.158-.98v-1.815h1.441v4.144h-1.087zM238.495 23.278a.598.598 0 0 0-.425.159c-.115.106-.181.271-.2.499h1.238a.71.71 0 0 0-.173-.48.565.565 0 0 0-.44-.178m.086 3.317c-.695 0-1.236-.183-1.62-.55-.386-.368-.578-.89-.578-1.568 0-.7.179-1.236.536-1.612.355-.374.863-.56 1.525-.56.63 0 1.115.163 1.458.488.344.326.514.795.514 1.407v.637h-2.577c.011.23.096.413.256.544.162.131.38.197.659.197.254 0 .485-.024.699-.07.212-.048.443-.13.691-.245v1.03c-.226.113-.46.192-.7.237-.24.042-.53.065-.863.065M243.865 21.99c-.11 0-.223-.018-.334-.055a5.767 5.767 0 0 1-.33-.12 6.893 6.893 0 0 0-.315-.12.854.854 0 0 0-.288-.056c-.134 0-.223.12-.266.36h-.665c.028-.427.115-.742.266-.946.151-.204.371-.306.665-.306.093 0 .193.018.298.055.104.037.212.076.32.12.108.043.215.083.322.121a.946.946 0 0 0 .297.055c.072 0 .127-.03.17-.093a.697.697 0 0 0 .096-.266h.671c-.028.407-.117.717-.274.93a.736.736 0 0 1-.633.321zm-.073 4.533V24.26c0-.273-.04-.48-.12-.621-.08-.142-.21-.213-.385-.213-.244 0-.42.098-.528.29-.108.194-.16.524-.16.992v1.815h-1.443v-4.145h1.087l.18.512h.085c.123-.195.294-.342.51-.438a1.82 1.82 0 0 1 .752-.147c.462 0 .82.133 1.078.399.257.266.386.64.386 1.122v2.697h-1.442zM247.801 25.585a.65.65 0 0 0 .447-.163.545.545 0 0 0 .186-.43v-.322l-.332.016c-.473.018-.712.19-.712.519 0 .254.137.38.411.38zm1.069.937-.276-.549h-.03c-.195.239-.393.404-.595.49-.2.09-.46.132-.779.132-.394 0-.703-.116-.931-.35-.225-.235-.339-.565-.339-.988 0-.441.156-.77.465-.985.31-.217.757-.338 1.346-.365l.695-.022v-.058c0-.342-.167-.513-.508-.513-.304 0-.69.102-1.162.309l-.416-.944c.487-.25 1.103-.373 1.843-.373.537 0 .952.13 1.246.394.292.263.44.63.44 1.104v2.718h-1zM254 25.25c0 .443-.154.779-.457 1.005-.305.227-.742.34-1.312.34-.312 0-.579-.016-.808-.048a3.512 3.512 0 0 1-.7-.182v-1.146c.223.098.467.179.735.243.265.063.504.095.713.095.313 0 .468-.072.468-.212 0-.074-.043-.138-.13-.196-.087-.058-.341-.17-.761-.335-.385-.157-.653-.334-.804-.533-.152-.198-.23-.45-.23-.754 0-.385.152-.686.45-.9.3-.214.724-.322 1.272-.322.275 0 .534.03.776.09.243.06.494.147.756.261l-.391.921a4.619 4.619 0 0 0-.61-.217 2.049 2.049 0 0 0-.523-.09c-.236 0-.353.058-.353.171 0 .072.04.132.123.184.083.048.319.15.713.304.292.12.511.236.654.35.143.115.25.25.317.406.068.154.102.342.102.565M160.185 31.367h1.518l.708 2.378c.035.124.058.274.07.45h.03c.018-.169.05-.315.088-.442l.728-2.386h1.47l-1.652 4.408c-.212.561-.47.957-.779 1.189-.31.23-.711.347-1.207.347-.192 0-.388-.02-.59-.062v-1.124c.13.03.28.045.446.045a.733.733 0 0 0 .335-.074.784.784 0 0 0 .251-.206c.071-.09.148-.234.228-.437l-1.644-4.086zM169.553 35.511l-1.103-3.85h-.032c.052.655.077 1.165.077 1.527v2.323h-1.289v-5.348h1.937l1.125 3.798h.03l1.102-3.798h1.943v5.348h-1.338v-2.345c0-.12.002-.256.006-.406.003-.147.019-.513.05-1.094h-.034l-1.087 3.845h-1.387zM176.282 32.267a.602.602 0 0 0-.425.159c-.115.106-.183.271-.2.5h1.238a.716.716 0 0 0-.173-.48.565.565 0 0 0-.44-.18m.086 3.318c-.696 0-1.236-.183-1.621-.55-.385-.368-.577-.89-.577-1.568 0-.7.178-1.236.535-1.612.356-.372.864-.56 1.526-.56.63 0 1.115.163 1.458.488.343.326.514.795.514 1.407v.637h-2.577c.01.23.096.413.256.544.161.131.38.197.659.197.254 0 .484-.024.698-.07a3.56 3.56 0 0 0 .692-.243v1.028a2.58 2.58 0 0 1-.7.237c-.24.042-.53.065-.863.065M180.83 34.454c.23 0 .394-.072.488-.216.095-.143.146-.365.154-.666v-.111c0-.368-.053-.628-.16-.782-.105-.156-.271-.233-.498-.233a.49.49 0 0 0-.44.265c-.103.178-.155.429-.155.756 0 .32.052.568.157.735a.507.507 0 0 0 .454.252m-.59 1.13c-.297 0-.557-.083-.78-.252-.222-.168-.395-.416-.516-.742a3.276 3.276 0 0 1-.183-1.145c0-.675.137-1.199.41-1.58.273-.38.649-.57 1.123-.57.236 0 .44.046.616.137.175.093.335.25.48.47h.03a6.674 6.674 0 0 1-.07-.974v-1.107h1.452v5.69h-1.087l-.31-.521h-.055c-.248.395-.617.594-1.11.594M183.73 35.511h1.44v-4.144h-1.44v4.144zm-.038-5.175c0-.214.06-.374.18-.48.12-.105.314-.157.584-.157.268 0 .462.054.585.162.123.107.185.266.185.475 0 .42-.257.628-.77.628-.51 0-.764-.208-.764-.628zM187.758 34.574a.65.65 0 0 0 .446-.163.545.545 0 0 0 .186-.43v-.322l-.332.016c-.473.018-.712.19-.712.519 0 .255.137.38.412.38zm1.068.937-.276-.549h-.03c-.194.239-.393.404-.595.49-.2.09-.46.132-.779.132-.394 0-.703-.116-.931-.35-.225-.235-.339-.565-.339-.988 0-.441.156-.77.465-.985.31-.217.758-.338 1.346-.365l.696-.022v-.058c0-.342-.168-.511-.508-.511-.305 0-.692.1-1.163.307l-.415-.944c.486-.25 1.102-.373 1.842-.373.538 0 .952.13 1.246.394.294.263.44.63.44 1.104v2.718h-1zM193.367 35.511v-2.26c0-.276-.04-.483-.12-.624-.082-.139-.21-.21-.387-.21-.243 0-.42.096-.526.288-.108.194-.162.524-.162.993v1.813h-1.442v-4.144h1.088l.18.512h.085c.123-.194.292-.341.511-.439.217-.097.468-.146.75-.146.462 0 .822.133 1.079.398.257.266.385.64.385 1.123v2.696h-1.441zM197.375 34.574a.653.653 0 0 0 .448-.163.55.55 0 0 0 .186-.43v-.322l-.332.016c-.473.018-.712.19-.712.519 0 .255.137.38.41.38zm1.068.937-.275-.549h-.03c-.195.239-.392.404-.594.49-.201.09-.46.132-.78.132-.394 0-.704-.116-.93-.35-.226-.235-.34-.565-.34-.988 0-.441.155-.77.465-.985.31-.217.759-.338 1.345-.365l.698-.022v-.058c0-.342-.17-.511-.51-.511-.303 0-.691.1-1.16.307l-.416-.944c.484-.25 1.1-.373 1.842-.373.536 0 .95.13 1.244.394.294.263.442.63.442 1.104v2.718h-1zM203.574 34.239c0 .443-.153.779-.458 1.005-.304.227-.742.34-1.311.34a5.89 5.89 0 0 1-.808-.049 3.567 3.567 0 0 1-.701-.181v-1.146c.225.1.47.18.737.243.265.064.504.095.713.095.311 0 .467-.072.467-.213 0-.071-.043-.137-.131-.195-.086-.058-.339-.17-.76-.335-.384-.155-.652-.333-.804-.533-.153-.198-.23-.45-.23-.754 0-.385.151-.685.451-.9.3-.214.724-.322 1.27-.322.276 0 .535.03.776.09.244.06.496.148.756.261l-.39.921a4.466 4.466 0 0 0-.61-.217 2.049 2.049 0 0 0-.524-.09c-.235 0-.352.058-.352.173 0 .07.04.13.123.181.083.05.32.152.714.306.291.119.51.235.654.35.142.114.25.249.318.404.067.155.1.343.1.566M209.476 35.511h-3.199v-5.348h3.2v1.161h-1.745v.842h1.615v1.158h-1.615v1.01h1.744zM215.395 35.511v-2.253c0-.28-.038-.49-.117-.63a.389.389 0 0 0-.366-.21.518.518 0 0 0-.487.28c-.103.187-.154.482-.154.88v1.933h-1.447v-2.253c0-.28-.035-.49-.11-.63a.378.378 0 0 0-.358-.21c-.225 0-.391.1-.493.3-.103.2-.155.526-.155.98v1.813h-1.441v-4.144h1.087l.18.512h.086c.111-.19.271-.336.48-.434.21-.102.448-.151.718-.151.602 0 1.024.181 1.267.545h.115c.119-.171.282-.306.493-.4.21-.096.44-.145.694-.145.493 0 .86.125 1.095.375.235.252.354.634.354 1.146v2.696h-1.441zM219.766 32.417c-.213 0-.36.075-.445.223-.085.151-.131.375-.137.67v.112c0 .358.046.614.143.772.095.16.246.238.452.238a.425.425 0 0 0 .404-.235c.081-.158.124-.417.124-.782 0-.356-.043-.611-.124-.767-.085-.153-.223-.23-.417-.23m.481 3.166c-.21 0-.398-.034-.568-.104a1.438 1.438 0 0 1-.495-.374h-.068c.045.29.068.469.068.54v1.664h-1.443v-5.942h1.172l.203.525h.068c.266-.398.637-.598 1.108-.598.463 0 .825.189 1.087.57.265.381.396.902.396 1.565 0 .669-.137 1.193-.413 1.578a1.3 1.3 0 0 1-1.115.576M225.043 31.294c.124 0 .243.01.355.03l.082.013-.13 1.35a2.14 2.14 0 0 0-.488-.043c-.315 0-.545.07-.686.213-.142.143-.214.35-.214.617v2.038h-1.443v-4.145h1.075l.223.662h.07c.121-.219.29-.396.504-.532.216-.136.431-.203.652-.203M227.919 32.267a.602.602 0 0 0-.425.159c-.116.106-.183.271-.2.5h1.237a.716.716 0 0 0-.172-.48.565.565 0 0 0-.44-.18m.086 3.318c-.696 0-1.236-.183-1.621-.55-.385-.368-.578-.89-.578-1.568 0-.7.179-1.236.536-1.612.356-.372.864-.56 1.526-.56.63 0 1.114.163 1.458.488.343.326.514.795.514 1.407v.637h-2.577c.01.23.095.413.255.544.162.131.38.197.66.197.253 0 .484-.024.698-.07.213-.048.442-.13.691-.243v1.028c-.226.114-.46.192-.702.237a4.966 4.966 0 0 1-.86.065M233.804 34.239c0 .443-.153.779-.457 1.005-.305.227-.742.34-1.311.34a5.89 5.89 0 0 1-.809-.049 3.567 3.567 0 0 1-.7-.181v-1.146c.225.1.47.18.737.243.265.064.504.095.713.095.311 0 .467-.072.467-.213 0-.071-.044-.137-.131-.195-.087-.058-.339-.17-.76-.335-.384-.155-.652-.333-.804-.533-.153-.198-.23-.45-.23-.754 0-.385.151-.685.451-.9.3-.214.724-.322 1.27-.322.276 0 .535.03.776.09.243.06.496.148.756.261l-.39.921a4.466 4.466 0 0 0-.61-.217 2.049 2.049 0 0 0-.524-.09c-.236 0-.353.058-.353.173 0 .07.04.13.124.181.083.05.32.152.714.306.29.119.51.235.654.35.142.114.248.249.317.404.068.155.1.343.1.566M236.184 34.574a.653.653 0 0 0 .448-.163.55.55 0 0 0 .187-.43v-.322l-.333.016c-.473.018-.711.19-.711.519 0 .255.137.38.41.38zm1.069.937-.276-.549h-.029c-.196.239-.393.404-.594.49-.202.09-.46.132-.78.132-.393 0-.704-.116-.93-.35-.225-.235-.34-.565-.34-.988 0-.441.155-.77.466-.985.309-.217.757-.338 1.345-.365l.696-.022v-.058c0-.342-.17-.511-.51-.511-.303 0-.69.1-1.16.307l-.416-.944c.486-.25 1.102-.373 1.843-.373.537 0 .951.13 1.245.394.293.263.44.63.44 1.104v2.718h-1zM242.384 34.239c0 .443-.154.779-.458 1.005-.305.227-.742.34-1.312.34a5.89 5.89 0 0 1-.808-.049 3.525 3.525 0 0 1-.7-.181v-1.146c.224.1.469.18.737.243.264.064.503.095.712.095.313 0 .467-.072.467-.213 0-.071-.042-.137-.13-.195-.086-.058-.34-.17-.761-.335-.384-.155-.652-.333-.802-.533-.154-.198-.231-.45-.231-.754 0-.385.152-.685.45-.9.3-.214.724-.322 1.272-.322.276 0 .534.03.776.09.243.06.494.148.756.261l-.392.921a4.52 4.52 0 0 0-.609-.217 2.059 2.059 0 0 0-.525-.09c-.234 0-.352.058-.352.173 0 .07.041.13.123.181.083.05.32.152.714.306.291.119.512.235.655.35.143.114.25.249.317.404.068.155.101.343.101.566M64.526 15.212h-.774v-5.63a.434.434 0 0 1-.008.047c-.004.025-.012.057-.02.09l-.029.107a.814.814 0 0 1-.03.087l-.653 1.477-.598 1.35-.557 1.26-.542 1.212h-.811c-.394-.887-.784-1.769-1.169-2.645-.383-.879-.774-1.76-1.173-2.65a1.302 1.302 0 0 1-.082-.307v5.602h-.768V8.421h.602c.131 0 .253.037.365.111a.608.608 0 0 1 .239.278l2.324 5.261c.016.046.031.096.045.15a.913.913 0 0 1 .022.162c.007-.142.041-.277.104-.404a7.59 7.59 0 0 0 .174-.378l2.12-4.79a.64.64 0 0 1 .246-.286c.11-.07.23-.104.358-.104h.615v6.791zM66.226 15.212h.78v-4.976h-.78v4.976zm-.177-6.304a.551.551 0 0 1 .167-.397.617.617 0 0 1 .181-.12.526.526 0 0 1 .22-.046.583.583 0 0 1 .523.344c.032.067.047.141.047.22 0 .079-.015.154-.046.22a.583.583 0 0 1-.523.345.526.526 0 0 1-.22-.046.617.617 0 0 1-.182-.121.635.635 0 0 1-.122-.179.54.54 0 0 1-.045-.22zM69.241 10.236c.006.017.026.053.057.113a.533.533 0 0 1 .048.247v.318c.09-.127.192-.237.312-.328.12-.095.25-.173.39-.237a2.181 2.181 0 0 1 .89-.19c.275 0 .526.052.754.156.225.101.417.25.577.443.159.193.282.425.368.697.086.272.13.576.13.913v2.844h-.78v-2.844c0-.46-.087-.82-.266-1.075-.175-.257-.448-.385-.813-.385-.21 0-.41.027-.595.08a1.83 1.83 0 0 0-.49.21c-.14.087-.252.193-.337.31a.729.729 0 0 0-.14.378v3.326h-.778v-4.976h.673zM74.118 15.212h.779v-4.976h-.779v4.976zm-.177-6.304a.551.551 0 0 1 .166-.397.617.617 0 0 1 .182-.12.545.545 0 0 1 .443 0 .583.583 0 0 1 .3.297.551.551 0 0 1 0 .44.583.583 0 0 1-.523.345.526.526 0 0 1-.22-.045.617.617 0 0 1-.182-.121.635.635 0 0 1-.121-.179.54.54 0 0 1-.045-.22zM75.995 14.393c.107-.053.207-.1.295-.14.091-.04.171-.06.24-.06a.66.66 0 0 1 .199.034c.068.021.15.065.246.128a.852.852 0 0 0 .273.133 1.2 1.2 0 0 0 .656-.008 1.01 1.01 0 0 0 .308-.15.717.717 0 0 0 .32-.597.69.69 0 0 0-.051-.249.554.554 0 0 0-.15-.198 1.216 1.216 0 0 0-.284-.18 4.04 4.04 0 0 0-.456-.182l-.048-.02a6.434 6.434 0 0 1-.51-.193 1.786 1.786 0 0 1-.447-.265 1.265 1.265 0 0 1-.32-.398 1.232 1.232 0 0 1-.122-.575c0-.193.043-.367.13-.526.089-.157.201-.293.341-.405a1.699 1.699 0 0 1 1.01-.359h.018c.18.003.347.037.498.098a1.965 1.965 0 0 1 .68.45c.076.077.128.135.159.173l-.157.133a.828.828 0 0 1-.196.125.46.46 0 0 1-.39.003 5.69 5.69 0 0 1-.2-.093 2.557 2.557 0 0 0-.21-.088.56.56 0 0 0-.202-.041.835.835 0 0 0-.34.06.75.75 0 0 0-.225.147.541.541 0 0 0-.122.176.431.431 0 0 0-.035.147c0 .111.026.204.08.28.05.075.119.141.202.196.083.057.178.102.284.14.107.039.216.076.327.114l.015.001a2.015 2.015 0 0 1 1.024.518c.14.118.25.26.333.425.081.163.124.36.124.586 0 .21-.044.408-.132.596a1.524 1.524 0 0 1-.363.492 1.748 1.748 0 0 1-.547.337c-.21.084-.439.126-.687.126a1.859 1.859 0 0 1-.9-.237 1.94 1.94 0 0 1-.377-.28 1.69 1.69 0 0 1-.291-.374M81.508 14.008c0 .054.01.113.032.178a.573.573 0 0 0 .243.32.363.363 0 0 0 .203.057l.133-.014c.137-.038.254-.058.35-.058.11 0 .212.032.3.093.089.063.166.138.229.225l.068.096c-.064.05-.142.098-.233.145a2.397 2.397 0 0 1-.588.202 1.31 1.31 0 0 1-.787-.064 1.123 1.123 0 0 1-.394-.262 1.175 1.175 0 0 1-.25-.403 1.5 1.5 0 0 1-.085-.515v-3.042h-.869v-.346c0-.067.01-.125.028-.172a.258.258 0 0 1 .103-.124.524.524 0 0 1 .202-.073c.088-.017.195-.025.325-.025h.21v-1.07c0-.086.01-.165.028-.24a1.174 1.174 0 0 1 .123-.332l.04-.073h.589v1.72h1.447v.735h-1.447v3.042zM87.69 12.17a1.74 1.74 0 0 0-1.148-1.16 1.778 1.778 0 0 0-.563-.086c-.22 0-.43.035-.626.106a1.788 1.788 0 0 0-.92.755c-.11.173-.184.364-.227.569a.658.658 0 0 1 .101-.12.257.257 0 0 1 .182-.063h3.2zm.797.11a.624.624 0 0 1-.055.262.67.67 0 0 1-.336.342.563.563 0 0 1-.225.049h-3.693a1.743 1.743 0 0 0 .58 1.138 1.83 1.83 0 0 0 1.22.455c.157 0 .32-.027.488-.08.17-.054.325-.123.47-.206a.719.719 0 0 1 .334-.084c.075 0 .147.014.213.04a.89.89 0 0 1 .182.098l.196.17c-.117.12-.248.23-.39.332a2.652 2.652 0 0 1-.958.428 2.532 2.532 0 0 1-1.541-.142 2.627 2.627 0 0 1-.82-.55 2.58 2.58 0 0 1-.554-.812 2.448 2.448 0 0 1-.204-.996c0-.353.07-.685.207-.995a2.59 2.59 0 0 1 3.225-1.42 2.598 2.598 0 0 1 1.643 1.775.981.981 0 0 1 .018.195zM90.097 10.236c.006.017.026.052.057.107a.387.387 0 0 1 .047.206v.455c.06-.116.147-.227.259-.33a1.85 1.85 0 0 1 .382-.267 2.105 2.105 0 0 1 .97-.243c.226 0 .44.038.645.109l-.062.333c-.024.135-.083.229-.17.278a.618.618 0 0 1-.302.073c-.024 0-.037 0-.045-.003-.006-.002-.03-.002-.077-.002a1.914 1.914 0 0 0-1.104.35 1.414 1.414 0 0 0-.35.354.812.812 0 0 0-.146.395v3.161h-.777v-4.976h.673zM93.14 15.212h.78v-4.976h-.78v4.976zm-.177-6.304c0-.078.015-.152.046-.22a.583.583 0 0 1 .523-.344.59.59 0 0 1 .522.344c.031.068.047.142.047.22a.576.576 0 0 1-.568.565.583.583 0 0 1-.523-.345.517.517 0 0 1-.047-.22zM95.89 12.724c0 .25.049.484.146.704a1.806 1.806 0 0 0 1.672 1.098c.25 0 .486-.048.71-.14.22-.093.412-.222.577-.383.163-.164.292-.356.386-.575.094-.22.14-.453.14-.704a1.781 1.781 0 0 0-1.104-1.66 1.82 1.82 0 0 0-.71-.14 1.797 1.797 0 0 0-1.282.523 1.78 1.78 0 0 0-.39.573 1.732 1.732 0 0 0-.144.704m-.764 0c0-.35.068-.681.204-.991a2.588 2.588 0 0 1 1.375-1.366 2.495 2.495 0 0 1 1.002-.203c.355 0 .69.067 1.005.203a2.579 2.579 0 0 1 1.376 1.366c.134.31.202.641.202.991 0 .354-.068.686-.202.997-.135.312-.32.584-.556.816a2.627 2.627 0 0 1-.82.55 2.53 2.53 0 0 1-1.005.202 2.592 2.592 0 0 1-2.377-1.567 2.47 2.47 0 0 1-.204-.998M59.428 24.237a.96.96 0 0 0 .544-.159c.16-.105.281-.244.365-.414v-.845a1.05 1.05 0 0 0-.365-.417.962.962 0 0 0-.544-.162 1.017 1.017 0 0 0-.93.616.963.963 0 0 0-.077.387.974.974 0 0 0 .296.704c.092.088.199.16.32.212.12.052.251.078.391.078zm2.474 1.49h-1.236a.427.427 0 0 1-.057-.106 1.083 1.083 0 0 1-.05-.136 1.212 1.212 0 0 1-.031-.2l-.039.027a.82.82 0 0 1-.177.171 1.421 1.421 0 0 1-.26.155c-.097.045-.2.084-.31.113-.11.03-.218.045-.323.045h-.032c-.351 0-.68-.067-.99-.203a2.588 2.588 0 0 1-.81-.556 2.634 2.634 0 0 1-.546-.815 2.446 2.446 0 0 1-.202-.984c0-.353.068-.683.203-.994a2.572 2.572 0 0 1 1.376-1.365 2.518 2.518 0 0 1 1.001-.201c.171 0 .339.029.499.092.162.062.303.134.423.22v-2.058h1.561v6.794zM66.107 22.692a1.236 1.236 0 0 0-.216-.314 1.06 1.06 0 0 0-.288-.215.91.91 0 0 0-.437-.096.855.855 0 0 0-.453.11c-.121.075-.22.157-.292.244a1.307 1.307 0 0 0-.196.352.632.632 0 0 1 .066-.039c.024-.01.05-.018.077-.027.03-.01.06-.015.096-.015h1.643zm1.605.28a.765.765 0 0 1-.32.64.933.933 0 0 1-.303.143c-.111.032-.216.047-.317.047h-2.476c.035.113.09.214.168.302a.851.851 0 0 0 .688.302c.09 0 .18-.013.265-.04a5.56 5.56 0 0 0 .25-.093c.084-.033.169-.065.256-.092a.894.894 0 0 1 .284-.044c.15 0 .281.026.392.074.113.048.216.121.31.216l.397.394c-.302.324-.638.57-1.002.732a2.758 2.758 0 0 1-1.124.242c-.356 0-.693-.067-1.007-.201a2.634 2.634 0 0 1-.825-.549 2.65 2.65 0 0 1-.556-.815 2.43 2.43 0 0 1-.205-.993c0-.351.068-.681.205-.993a2.65 2.65 0 0 1 .556-.816c.234-.232.51-.415.825-.55.314-.132.651-.2 1.007-.2.297 0 .582.052.856.158a2.79 2.79 0 0 1 1.32 1.062c.158.242.268.497.332.765a.73.73 0 0 1 .021.17l.003.14zM71.82 25.726h1.568v-6.793H71.82zM76.163 20.748c.08.087.134.198.163.337.03.14.04.277.028.417a.842.842 0 0 1 .198-.31c.093-.099.205-.188.331-.264.128-.076.268-.136.418-.182a1.886 1.886 0 0 1 1.262.093c.234.107.433.259.594.454.163.196.288.435.374.713.085.28.128.593.128.937v2.783h-1.562v-2.713a1.49 1.49 0 0 0-.05-.423.625.625 0 0 0-.13-.241.369.369 0 0 0-.17-.109.573.573 0 0 0-.166-.027c-.137 0-.268.016-.394.047a1.183 1.183 0 0 0-.333.136.754.754 0 0 0-.228.21.476.476 0 0 0-.086.279v2.84h-1.563v-4.977h1.186zM83.131 24.237a.96.96 0 0 0 .544-.159c.16-.105.281-.244.365-.414v-.845a1.05 1.05 0 0 0-.365-.417.962.962 0 0 0-.544-.162 1.017 1.017 0 0 0-.93.616 1.001 1.001 0 0 0 0 .773c.054.12.127.226.22.318.091.088.198.16.32.212.12.052.25.078.39.078zm2.474 1.49H84.37a.427.427 0 0 1-.057-.106 1.083 1.083 0 0 1-.05-.136 1.212 1.212 0 0 1-.031-.2l-.039.027a.82.82 0 0 1-.177.171 1.421 1.421 0 0 1-.26.155c-.097.045-.2.084-.31.113-.11.03-.218.045-.323.045h-.032c-.351 0-.68-.067-.99-.203a2.588 2.588 0 0 1-.81-.556 2.634 2.634 0 0 1-.546-.815 2.446 2.446 0 0 1-.202-.984c0-.353.068-.683.203-.994a2.572 2.572 0 0 1 1.376-1.365 2.518 2.518 0 0 1 1.001-.201c.171 0 .339.029.499.092.162.062.303.134.423.22v-2.058h1.561v6.794zM89.982 25.726a.675.675 0 0 1-.149-.281 1.323 1.323 0 0 1-.048-.35v-.061c0-.02.003-.04.007-.063a.892.892 0 0 1-.2.316c-.093.1-.204.187-.332.263a1.79 1.79 0 0 1-.417.18 1.891 1.891 0 0 1-1.262-.096 1.646 1.646 0 0 1-.593-.454 2.01 2.01 0 0 1-.374-.713 3.228 3.228 0 0 1-.128-.936v-2.783h1.561v2.712c0 .178.017.318.05.423a.646.646 0 0 0 .129.242c.054.055.11.093.168.108a.568.568 0 0 0 .169.028c.137 0 .268-.017.394-.048.126-.032.237-.076.333-.134.095-.06.17-.13.229-.212a.476.476 0 0 0 .086-.278v-2.841h1.563v4.978h-1.186zM92.504 24.147c.074-.038.152-.068.234-.093A.995.995 0 0 1 93 24.02c.11 0 .212.035.31.105.1.072.209.147.33.227a.33.33 0 0 0 .108.044.444.444 0 0 0 .122.018.303.303 0 0 0 .114-.023.336.336 0 0 0 .18-.145.206.206 0 0 0 .03-.108v-.023a.19.19 0 0 0-.029-.087.22.22 0 0 0-.081-.077 1.037 1.037 0 0 0-.151-.076 5.685 5.685 0 0 0-.24-.092 5.98 5.98 0 0 1-.538-.217 1.93 1.93 0 0 1-.472-.302 1.42 1.42 0 0 1-.337-.438 1.364 1.364 0 0 1-.13-.62c0-.216.05-.416.147-.6.097-.186.226-.346.386-.482.162-.136.343-.243.548-.32.202-.077.411-.117.625-.117.143 0 .282.02.417.06a2.26 2.26 0 0 1 .707.348c.102.073.188.142.263.208.076.064.136.122.182.174.048.052.075.087.09.1l-.353.376c-.094.075-.18.135-.259.176a.576.576 0 0 1-.268.061.43.43 0 0 1-.168-.026l-.129-.056a.866.866 0 0 0-.4-.084.281.281 0 0 0-.204.076.236.236 0 0 0-.078.176c0 .035.005.067.014.097.01.03.028.052.057.07a.867.867 0 0 0 .261.1 6.804 6.804 0 0 1 .395.108c.18.057.35.118.505.184.155.067.29.151.406.253.115.103.205.233.27.39.064.156.098.353.098.59a1.658 1.658 0 0 1-.52 1.205 1.935 1.935 0 0 1-1.338.515c-.185 0-.368-.031-.55-.095a2.096 2.096 0 0 1-.522-.27 2.403 2.403 0 0 1-.459-.428 2.974 2.974 0 0 1-.37-.572l.534-.275zM98.35 22.2v1.771c0 .066.011.12.031.162a.251.251 0 0 0 .068.095.193.193 0 0 0 .083.041c.03.006.054.01.077.01.03 0 .063-.004.094-.01a.532.532 0 0 1 .072-.008c.087 0 .17.011.245.037.076.026.146.057.21.096.064.037.121.08.173.129.05.05.096.099.137.15.096.12.176.256.24.409a2.41 2.41 0 0 1-.335.265 3.282 3.282 0 0 1-.816.38c-.134.04-.25.06-.35.06-.229 0-.435-.038-.62-.113a1.33 1.33 0 0 1-.77-.776 1.68 1.68 0 0 1-.106-.6v-2.099h-.714v-.777c0-.187.06-.336.18-.45.122-.11.3-.183.534-.213v-.883c0-.127.022-.24.06-.34.04-.103.085-.189.131-.262.06-.082.125-.159.197-.226h1.18v1.696h1.194v1.455H98.35zM101.48 20.748c.037.041.068.09.088.143.02.054.036.104.046.15a.654.654 0 0 1 .014.173.708.708 0 0 1 .191-.234c.082-.066.174-.12.271-.163a1.581 1.581 0 0 1 .597-.13c.28 0 .627.084 1.047.252l-.109.624a.685.685 0 0 1-.35.504.917.917 0 0 1-.281.106c-.102.02-.205.03-.311.03-.108 0-.211.014-.31.042-.098.03-.186.065-.263.113a.83.83 0 0 0-.194.156.4.4 0 0 0-.097.177v3.035h-1.562v-4.978h1.224zM104.3 25.726h1.569v-4.978H104.3v4.978zm-.142-6.328a.747.747 0 0 1 .273-.588.84.84 0 0 1 .294-.16c.112-.04.232-.057.36-.057.126 0 .248.016.36.056a.84.84 0 0 1 .294.16c.084.07.15.155.199.254.048.101.074.21.074.335a.773.773 0 0 1-.074.334.784.784 0 0 1-.199.254.891.891 0 0 1-.294.16 1.119 1.119 0 0 1-.36.057c-.128 0-.248-.019-.36-.057a.891.891 0 0 1-.294-.16.752.752 0 0 1-.272-.588zM108.598 24.502c.14 0 .29-.021.456-.06.163-.042.329-.103.494-.186v-.74a9.288 9.288 0 0 0-.187-.014 5.626 5.626 0 0 0-.243-.005 1.87 1.87 0 0 0-.36.035c-.117.025-.22.058-.311.106a.673.673 0 0 0-.217.163.314.314 0 0 0-.082.208c0 .058.011.115.033.173a.47.47 0 0 0 .228.276.402.402 0 0 0 .189.044zm-1.543-2.796c.054-.083.113-.164.176-.246.054-.07.117-.14.186-.214.07-.074.145-.136.225-.19a2.36 2.36 0 0 1 .616-.28c.22-.066.466-.098.737-.098.308 0 .576.033.8.099.228.066.42.159.575.276.155.12.283.26.379.423.098.162.173.338.226.527.052.191.088.391.106.6.02.212.03.424.03.64v2.483h-1.238a.61.61 0 0 1-.071-.128 1.47 1.47 0 0 1-.048-.146.657.657 0 0 1-.025-.192 1.471 1.471 0 0 1-.599.43c-.101.039-.197.066-.292.082a1.414 1.414 0 0 1-.25.024c-.267 0-.518-.04-.75-.117a1.9 1.9 0 0 1-.607-.335 1.56 1.56 0 0 1-.405-.52 1.496 1.496 0 0 1-.148-.671c0-.552.21-.961.627-1.233.42-.272 1.028-.41 1.829-.41a.923.923 0 0 1 .309.052.545.545 0 0 1 .09.054.872.872 0 0 0-.165-.52.507.507 0 0 0-.42-.201.62.62 0 0 0-.227.043c-.07.029-.14.06-.21.093-.07.032-.14.064-.212.092a.624.624 0 0 1-.237.044.847.847 0 0 1-.312-.064 2.294 2.294 0 0 1-.288-.145l-.407-.252zM111.626 24.91a.829.829 0 0 1 .258-.598.95.95 0 0 1 .277-.18.858.858 0 0 1 .34-.066c.118 0 .23.022.336.066a.842.842 0 0 1 .468.448c.047.104.07.214.07.33 0 .325-.088.655-.262.986-.176.33-.447.65-.815.957l-.203-.193a.45.45 0 0 1-.124-.165.454.454 0 0 1-.034-.177c0-.053.01-.104.032-.148a.984.984 0 0 1 .074-.135c.028-.045.055-.093.082-.143a.602.602 0 0 0 .06-.177.852.852 0 0 1-.43-.34.906.906 0 0 1-.13-.465M61.879 35.33h-4.557v-6.794h4.557v1.451h-2.994v1.189h2.437v1.451h-2.437v1.251h2.994zM64.158 30.351c.08.087.134.199.165.338.03.139.038.276.026.417a.842.842 0 0 1 .199-.31c.092-.1.204-.188.332-.264a1.83 1.83 0 0 1 .417-.182c.151-.046.305-.069.46-.069.3 0 .567.054.803.162.232.107.43.258.592.454.164.195.288.435.375.713.084.28.127.593.127.936v2.783h-1.56v-2.712a1.43 1.43 0 0 0-.052-.424.624.624 0 0 0-.127-.24.376.376 0 0 0-.171-.11.58.58 0 0 0-.166-.027c-.137 0-.27.017-.395.048a1.165 1.165 0 0 0-.332.135.742.742 0 0 0-.23.211.476.476 0 0 0-.086.278v2.841h-1.562v-4.978h1.185zM72.054 32.295a1.276 1.276 0 0 0-.215-.313 1.084 1.084 0 0 0-.288-.215.91.91 0 0 0-.438-.097.865.865 0 0 0-.454.11c-.12.075-.218.158-.29.245a1.311 1.311 0 0 0-.198.351.888.888 0 0 1 .068-.038c.023-.01.05-.018.077-.028.03-.01.06-.015.095-.015h1.643zm1.606.281a.75.75 0 0 1-.093.38.813.813 0 0 1-.227.26.948.948 0 0 1-.304.142c-.11.032-.215.048-.317.048h-2.475c.035.113.09.213.167.302a.97.97 0 0 0 .26.21c.11.062.253.092.429.092.09 0 .18-.013.264-.04a5.56 5.56 0 0 0 .251-.094c.083-.032.168-.064.256-.092a.894.894 0 0 1 .283-.044c.15 0 .28.026.391.075.114.047.216.12.311.215l.397.394a3.09 3.09 0 0 1-1.003.732c-.365.162-.74.243-1.123.243a2.55 2.55 0 0 1-1.008-.202 2.645 2.645 0 0 1-.824-.548 2.65 2.65 0 0 1-.555-.816 2.431 2.431 0 0 1-.207-.993c0-.35.07-.68.207-.992a2.65 2.65 0 0 1 .555-.816 2.576 2.576 0 0 1 1.832-.75c.297 0 .58.052.856.157a2.783 2.783 0 0 1 1.318 1.062c.159.243.271.498.334.765.012.052.02.108.022.17l.003.14zM75.832 30.351c.039.042.068.09.09.144.02.053.035.104.044.15a.597.597 0 0 1 .016.172.708.708 0 0 1 .19-.233c.082-.066.174-.121.271-.164a1.567 1.567 0 0 1 .597-.13c.28 0 .627.084 1.048.252l-.11.625a.716.716 0 0 1-.126.307.718.718 0 0 1-.223.197.932.932 0 0 1-.282.105c-.102.02-.205.031-.31.031-.109 0-.212.014-.31.041-.099.03-.187.066-.264.113a.83.83 0 0 0-.194.156.385.385 0 0 0-.097.177v3.035H74.61v-4.978h1.222zM79.76 32.23a.534.534 0 0 0 .16.38.57.57 0 0 0 .172.116.518.518 0 0 0 .425 0 .577.577 0 0 0 .294-.289.534.534 0 0 0 0-.425.498.498 0 0 0-.12-.174.65.65 0 0 0-.174-.119.5.5 0 0 0-.213-.044.495.495 0 0 0-.212.044.642.642 0 0 0-.173.12.535.535 0 0 0-.16.39m3.187-1.55a1.137 1.137 0 0 1-.296.501.762.762 0 0 1-.229.144.626.626 0 0 1-.277.042c.01.032.021.08.04.144a5.388 5.388 0 0 1 .094.45c.012.081.018.155.018.222 0 .249-.047.49-.143.724-.095.235-.23.442-.403.625a2.026 2.026 0 0 1-.624.438c-.243.11-.508.165-.799.165-.13 0-.268-.015-.41-.043a1.54 1.54 0 0 1-.401-.137c-.003 0-.017.01-.043.03a.697.697 0 0 0-.16.205.296.296 0 0 0-.036.144c0 .07.028.117.087.143a.609.609 0 0 0 .234.037c.072 0 .155-.005.246-.014.09-.01.186-.02.286-.033.1-.013.205-.023.313-.034.109-.008.217-.012.325-.012a2.225 2.225 0 0 1 .81.145c.132.05.256.116.375.194.117.08.22.176.31.286.09.11.158.24.21.386a1.5 1.5 0 0 1 .076.495c0 .166-.042.351-.126.554a1.893 1.893 0 0 1-.371.569 2.02 2.02 0 0 1-.593.443c-.236.119-.502.178-.8.178-.218 0-.447-.027-.69-.08a7.55 7.55 0 0 1-.733-.2c-.243-.079-.479-.164-.708-.253-.23-.091-.44-.17-.627-.244l.331-.692a.661.661 0 0 1 .26-.289.715.715 0 0 1 .394-.114c.105 0 .216.018.333.055.12.036.243.077.37.122.13.046.264.088.4.124.137.036.277.055.42.055a.896.896 0 0 0 .428-.104.45.45 0 0 0 .123-.107.188.188 0 0 0 .048-.121c0-.073-.057-.139-.167-.197-.109-.058-.29-.089-.546-.089-.134 0-.274.007-.42.016-.148.009-.293.015-.44.015-.162 0-.32-.018-.472-.052a1.026 1.026 0 0 1-.397-.174.885.885 0 0 1-.276-.34 1.244 1.244 0 0 1-.103-.54c0-.056.014-.128.045-.214.028-.084.07-.174.126-.269a1.83 1.83 0 0 1 .2-.278 1.24 1.24 0 0 1 .271-.233 2.471 2.471 0 0 1-.352-.63 1.762 1.762 0 0 1-.106-.603c0-.269.049-.522.149-.76a1.927 1.927 0 0 1 2.312-1.121c.165.051.317.115.46.193.033-.012.078-.024.134-.038a3.055 3.055 0 0 1 .579-.061c.134 0 .257.012.37.036.112.026.212.054.3.081.097.037.19.074.271.115M85.565 29.508c-.164.219-.432.327-.802.327h-.717l.356-.627c.087-.155.155-.27.2-.349.046-.08.078-.133.097-.162.017-.029.032-.049.044-.065a.715.715 0 0 1 .325-.237c.134-.052.291-.076.473-.076h.999l-.975 1.19zM83.74 35.33h1.567v-4.826H83.74v4.826zM88.12 34.106c.14 0 .29-.021.455-.061.164-.041.33-.103.494-.185v-.74a9.288 9.288 0 0 0-.186-.015 5.626 5.626 0 0 0-.243-.004c-.125 0-.245.012-.36.035-.117.024-.22.058-.311.105a.673.673 0 0 0-.217.164.314.314 0 0 0-.082.208c0 .058.01.114.032.172.02.06.05.112.088.16a.402.402 0 0 0 .33.16zm-1.544-2.797c.053-.082.113-.163.177-.246.053-.07.117-.14.186-.214.07-.073.145-.136.225-.19.19-.123.397-.216.615-.28.22-.066.465-.098.736-.098.31 0 .578.034.802.1.228.065.42.158.575.276.155.119.283.26.378.423.099.162.174.338.227.527.05.19.087.391.106.6.02.211.03.423.03.639v2.483h-1.239a.694.694 0 0 1-.118-.273.657.657 0 0 1-.025-.192 1.568 1.568 0 0 1-.599.43c-.101.038-.197.066-.292.081a1.417 1.417 0 0 1-.251.025c-.268 0-.517-.04-.75-.118a1.893 1.893 0 0 1-.606-.334 1.56 1.56 0 0 1-.405-.52c-.1-.203-.15-.426-.15-.672 0-.551.211-.96.628-1.233.42-.271 1.029-.409 1.83-.409a.896.896 0 0 1 .309.052.527.527 0 0 1 .09.053.852.852 0 0 0-.167-.519.505.505 0 0 0-.419-.202.62.62 0 0 0-.226.043c-.07.03-.14.06-.21.093-.07.032-.14.065-.212.092a.624.624 0 0 1-.237.044.847.847 0 0 1-.313-.064 2.294 2.294 0 0 1-.288-.145l-.407-.252zM92.612 30.351h1.027a1.083 1.083 0 0 1 .57.164.98.98 0 0 1 .221.19.785.785 0 0 1 .139.25l.617 1.553c.054.136.09.252.108.35.017.095.026.174.026.234a.588.588 0 0 1-.02.152l.904-2.305a.885.885 0 0 1 .364-.43 1.05 1.05 0 0 1 .562-.158h1.036l-2.732 6.21a.931.931 0 0 1-.366.448 1.014 1.014 0 0 1-.273.12 1.05 1.05 0 0 1-.296.044h-1.033l1.066-2.442-1.92-4.38zM108.105 35.33h-1.563v-4.533l-1.724 4.532h-1.352l-1.758-4.532v4.532h-1.563v-6.793h1.71a1.174 1.174 0 0 1 .594.168.92.92 0 0 1 .224.19c.065.075.111.157.144.244l1.199 3.399c.015.05.03.107.044.17a3.523 3.523 0 0 1 .074.389c.005-.069.013-.138.025-.205l.035-.182a.95.95 0 0 1 .056-.172l1.19-3.399c.03-.095.08-.18.146-.256a.977.977 0 0 1 .231-.19c.085-.05.18-.087.28-.114.103-.026.205-.042.308-.042h1.7v6.793zM109.617 35.33h1.568V30.35h-1.568v4.978zM109.476 29a.747.747 0 0 1 .272-.588.872.872 0 0 1 .293-.16c.112-.039.235-.057.362-.057s.247.018.36.057c.112.036.21.091.294.16.083.069.15.154.197.253.05.101.075.211.075.335a.76.76 0 0 1-.272.588.923.923 0 0 1-.294.16 1.129 1.129 0 0 1-.722 0 .899.899 0 0 1-.293-.16.747.747 0 0 1-.272-.588zM113.741 30.351c.08.087.135.199.165.338s.04.276.026.417a.884.884 0 0 1 .198-.31c.094-.1.205-.188.333-.264a1.86 1.86 0 0 1 .417-.182c.153-.046.305-.069.462-.069.299 0 .565.054.8.162.233.107.432.258.593.454.164.195.288.435.374.713.085.28.128.593.128.936v2.783h-1.56v-2.712a1.49 1.49 0 0 0-.05-.424.646.646 0 0 0-.13-.24.376.376 0 0 0-.17-.11.573.573 0 0 0-.167-.027c-.137 0-.269.017-.394.048a1.183 1.183 0 0 0-.332.135.76.76 0 0 0-.23.211.476.476 0 0 0-.086.278v2.841h-1.562v-4.978h1.185zM121.637 32.295a1.235 1.235 0 0 0-.216-.313 1.06 1.06 0 0 0-.287-.215.91.91 0 0 0-.438-.097.855.855 0 0 0-.452.11c-.122.075-.22.158-.293.245a1.307 1.307 0 0 0-.195.351.632.632 0 0 1 .066-.038c.023-.01.05-.018.077-.028.03-.01.06-.015.095-.015h1.643zm1.606.281a.765.765 0 0 1-.32.64.933.933 0 0 1-.304.142c-.11.032-.215.048-.317.048h-2.475c.035.113.09.213.167.302.065.076.15.145.262.21.11.062.251.092.426.092.091 0 .18-.013.265-.04a5.56 5.56 0 0 0 .251-.094c.083-.032.168-.064.256-.092a.894.894 0 0 1 .283-.044c.15 0 .282.026.393.075.112.047.215.12.31.215l.396.394c-.301.324-.637.57-1.002.732a2.758 2.758 0 0 1-1.124.243c-.355 0-.693-.067-1.007-.202a2.634 2.634 0 0 1-.825-.548 2.65 2.65 0 0 1-.556-.816 2.43 2.43 0 0 1-.204-.993c0-.35.067-.68.204-.992a2.65 2.65 0 0 1 .556-.816c.234-.232.51-.416.825-.55.314-.133.652-.2 1.007-.2.297 0 .582.052.856.157a2.79 2.79 0 0 1 1.32 1.062c.158.243.269.498.332.765a.73.73 0 0 1 .022.17l.003.14zM125.417 30.351c.037.042.067.09.087.144.02.053.036.104.047.15a.654.654 0 0 1 .013.172.708.708 0 0 1 .191-.233c.082-.066.174-.121.271-.164a1.583 1.583 0 0 1 .599-.13c.277 0 .625.084 1.045.252l-.109.625a.685.685 0 0 1-.35.504.917.917 0 0 1-.281.105c-.102.02-.205.031-.311.031-.108 0-.21.014-.31.041-.098.03-.186.066-.263.113a.83.83 0 0 0-.194.156.4.4 0 0 0-.097.177v3.035h-1.562v-4.978h1.224zM130.133 29.617c-.165.219-.433.327-.802.327h-.718l.356-.628c.088-.154.156-.268.2-.348a3.5 3.5 0 0 1 .142-.227.715.715 0 0 1 .325-.237c.134-.052.29-.077.472-.077h1l-.975 1.19zm-1.826 5.822h1.567v-4.826h-1.567v4.826zM132.534 34.106c.14 0 .29-.021.455-.061.165-.041.33-.103.495-.185v-.74a9.288 9.288 0 0 0-.187-.015 5.626 5.626 0 0 0-.243-.004 1.87 1.87 0 0 0-.36.035c-.117.024-.22.058-.311.105a.673.673 0 0 0-.217.164.314.314 0 0 0-.082.208c0 .058.011.114.033.172.02.06.049.112.087.16a.457.457 0 0 0 .142.117.396.396 0 0 0 .188.044zm-1.543-2.797c.054-.082.113-.163.176-.246.054-.07.117-.14.186-.214.07-.073.145-.136.226-.19.191-.123.396-.216.615-.28.221-.066.466-.098.737-.098.308 0 .576.034.8.1.228.065.42.158.575.276.157.119.283.26.378.423.099.162.174.338.227.527.052.19.088.391.106.6.02.211.03.423.03.639v2.483h-1.239a.61.61 0 0 1-.07-.128 1.47 1.47 0 0 1-.048-.145.657.657 0 0 1-.025-.192 1.471 1.471 0 0 1-.599.429c-.101.04-.197.067-.292.082a1.414 1.414 0 0 1-.25.025c-.267 0-.518-.04-.75-.118a1.9 1.9 0 0 1-.607-.334 1.56 1.56 0 0 1-.405-.52 1.496 1.496 0 0 1-.148-.672c0-.551.21-.96.627-1.233.42-.271 1.028-.409 1.829-.409a.912.912 0 0 1 .309.052.545.545 0 0 1 .09.053.872.872 0 0 0-.165-.519.507.507 0 0 0-.42-.202.606.606 0 0 0-.226.043c-.07.03-.141.06-.21.093-.071.032-.14.065-.213.092a.624.624 0 0 1-.237.044.847.847 0 0 1-.313-.064 2.294 2.294 0 0 1-.287-.145l-.407-.252z" fill="#FEFEFE" mask="url(#b)"/>
        <path stroke="#FEFEFE" stroke-width=".77" mask="url(#b)" d="M145.916 8.379v30.774"/>
        <path fill="#02498D" mask="url(#b)" d="m8.195 21.131.003-.01-.039.077z"/>
        <path d="M17.971 35.067c4.976 0 9.011-5.571 9.011-12.443 0-6.874-4.035-12.445-9.01-12.445-4.976 0-9.011 5.57-9.011 12.445 0 6.872 4.035 12.443 9.01 12.443" fill="#FEFEFE" mask="url(#b)"/>
        <path d="M13.526 10.163c-3.132 1.277-1.93 2.589-4.194 2.665 1.646.828 1.914-.197 3.427-.634 1.515-1.44 3.31-2.218 5.193-2.218 1.889 0 3.687.782 5.205 2.229 1.792.328 2.097-.634 3.455.623-.652-1.978-1.75-1-3.467-2.338a4.216 4.216 0 0 1-.23-.191l-.049-.042a6.891 6.891 0 0 1-.157-.146l4.614-.833-4.905-.884c3.134-1.277 1.93-2.59 4.194-2.666-2.023-1.018-1.951.775-4.697.816l2.67-3.826-4.1 2.815c1.305-3.1-.48-3.185 1.066-4.825-2.03.656-.971 1.773-2.434 3.534a6.933 6.933 0 0 1-.235.263l-.07.075L17.973 0l-.892 4.867c-1.288-3.109-2.61-1.917-2.687-4.16-1.028 2.008.78 1.934.822 4.66l-3.855-2.65L14.2 6.785c-3.127-1.295-3.21.476-4.867-1.056.627 1.896 1.66 1.079 3.258 2.183a5.514 5.514 0 0 1 .647.535l-4.616.832 4.905.885z" fill="#FEFEFE" mask="url(#b)"/>
        <path fill="#02498D" mask="url(#b)" d="m8.195 21.131.003-.01-.039.077z"/>
        <path d="m29.933 32.038-.552 1.212.027-.33.097-.316.15-.396.278-.17zm-.733 1.224-.096.359v-.202l.027-.5-.14-.65-.038-.74.247.706.057.251.041.342-.098.434zm-3.543 3.516-.124.326-.123.33-.194.314-.236.225-.139.067.153-.264.138-.225.194-.261.124-.304.207-.434v.226zm-.953 1.178-.089.19-.048.025-.441.263-.593.328-.014.014-.03.026.14-.17.082-.134.248-.34.347-.553.288-.408.178-.396.277-.657.048.32-.132.46-.136.3v.211l-.125.521zm-2.013.846-.014.303-.317.157.041-.223.097-.197.125-.212.068-.118v.29zm-2.353-.04c-.36.315-.703.659-1.103.922l-.153.105-.125.066.125-.263.317-.567.248-.461.236-.315.33-.185s.304.527.125.698zm-.463 2.936.373.107-.014.043-.016.023c-.109.289-.37.75-.385.79-.013.091 0 .183-.069.235l-.063.038-.034-.063c-.205-.432-.519-.94-.753-1.49l.051.016.91.301zm-2.379-.172-.109.33-.277.461-.317.538-.4.54-.387.262-.11-.301-.165-.474-.111-.382-.07-.262-.061-.324.16-.045.274-.027.359-.028.25-.01.109-.147h.207l.262-.118.437-.223-.05.21zm-.56-1.575c-.626-.495-.996-.78-1.11-1.532.497.406.754.877 1.11 1.37l.096.226-.096-.064zm-5.625-2.06-.187-.062-.232-.139-.29-.134-.169-.037-.197-.037-.157-.284-.115-.126-.131-.075.054-.219.186-.246.236-.37.093-.285v-.014l.008-.003.003.023.02.222.18.328.09.284.046.18.19.262.084.137.782.771.659.593-.624-.365-.53-.403zm-1.805-1.203-.232-.218-.15-.21-.28-.337-.143-.238.005-.155.063-.3-.002.015a.41.41 0 0 0 .537-.08l-.005.104.032.36.09.415-.008.077.055.27.15.26.013.169-.125-.132zm-.91-1.165-.012.16-.052.005-.043-.398.044-.233.076-.046c.02.064.05.124.092.173l-.064.157-.04.182zm-.281-.358-.146.177-.016-.175-.049-.084-.143-.252-.225-.297-.074-.085.105-.187.117-.265.09-.106.08.026-.007.069.146.16-.009.312.099.257.035.226-.003.224zm-.778-.94-.257-.367-.323-.572-.148-.247.022-.07.13-.26.033-.057.002.008.066.217.087.145-.009.124.106.131.173.336.123.335-.005.278zm-3.2-8.14-.073-.335.048-.234.128-.373.01.223-.01.237-.086.396-.017.085zm.318-.496.108-.221.242-.322-.063.245-.119.129-.049.08-.018.196-.09.144-.009.37-.07.236-.045.167-.059.148-.08-.37.035-.143.07-.289.147-.37zm27.416-5.578v.04l-.015-.21-.084-.25-.109-.25-.028-.185.014-.329.103-.293c.014.006.028.014.045.017a.362.362 0 0 0 .26-.037c-.114.425-.05.85-.146 1.286l-.04.21zm-.374-1.21v-.395l.025-.152c.021.09.067.17.132.225l-.046.111-.111.211zm-.428-.33-.11-.17-.109-.184-.097-.171-.097-.106.19.115.009.01.174.23.1.288-.06-.012zm1.518 8.592-.262.344-.22.316-.179.21-.124.13.026-.17.043-.223.054-.132.083-.13.042-.12.013-.249v-.29l.125-.145.123-.185.151-.158s.065-.06.111-.11v.005c.18.185.551.157.828-.078.277-.238.359-.579.179-.764-.179-.197-.551-.158-.827.078-.222.187-.317.462-.234.659l-.057.053-.123.131-.15.17-.126.199-.041.013v-.157l.068-.25.124-.329.153-.264.04-.216.081-.126c.373-.303.527-.565 1.023-.657 1.053-.29 1.71-1.306 2.401-2.403-1.793.35-2.146 1.645-2.746 2.099l-.491.56.009-.073.055-.159.151-.249.234-.236.291-.303c.303-.395.674-.803.952-1.223.55-1 .606-1.633.842-2.7-.692.726-1.312 1.7-1.782 2.593l-.234.409c-.083.223-.178.446-.247.67l-.124.29-.11.25-.042.131-.083.211-.042.199-.04.17-.069.013.026-.225v-.131l.043-.183.123-.25.125-.277.262-.75.138-.382.124-.472.15-.58.113-.554.054-.473v-.329l.069-.539.026-.382-.385.605-.22.462-.208.395-.361.941-.01-.153-.128-.253.004-.01-.028-.264.11-.368.004-.017.009.004c.208.027.456-.17.579-.46.125-.329.055-.672-.165-.75-.22-.092-.51.105-.646.435-.111.303-.056.617.123.723l.006.003-.062.142-.064.175-.025.057-.103-.232-.193-.33-.015-.025v-.107l.179-.394c.98-1.593 1.684-2.777 1.462-4.657-.35.897-.905 1.726-1.276 2.629a.377.377 0 0 0-.256-.235c-.161-.04-.33.04-.428.194.105-.556.228-1.105.29-1.668.123-1.166-.47-3.248-.48-3.275-.222 1.104-.635 2.92-.526 3.195l.056.225-.111-.132c-.454-1.04-1.048-2.011-1.489-3.065 0 0 .017-.12.053-.222.354-.982.445-1.534.294-2.604l-.086-.83c-.184.82-.509 1.574-.478 2.446.011.452.074.895.079 1.333-.071-.455-.113-.959-.234-1.393-.227-.785-.736-1.2-1.221-1.767.12.5.248.892.451 1.356.234.507.542.93.756 1.442.085.188.13.38.192.585-.315-.605-.736-1.324-1.325-1.6-.368-.17-.266-.251-.633-.428.236.324.447.793.694 1.1.238.3.52.409.644.484.225.143.235.198.446.386.073.206.108.345.224.52l.03.033-.018.364-.116-.12c-.05-.337-.069-.455-.377-.574-.563-.203-.39.67.097.755.096.012.193-.055.276-.09l.115.131-.001.035-.013.277.096.406.222.632.038.226-.383-.358-.525-.407-.413-.25-.703-.488.565.91.55.829-.22-.04-1.008-.33-1.047-.3c1.186 1.235 2.29 1.92 4.014 2.445.11.065.22.131.317.21l.371.343.12.038.157.463-.22-.094-.262-.079c-.043-.223-.317-.393-.636-.393-.344 0-.634.21-.634.472 0 .265.29.488.634.488.342 0 .615-.206.646-.454l.1.032.263.106.218.197.208.423.04.304-.066-.107-.183-.232-.145-.178-.166-.165.094.402.04.368.055.33.111.382.125.408.012.092-.206-.317c-.359-.525-.827-.933-1.227-1.432.248.841.426 1.617.757 2.434l.093.246s-1.058-1.234-1.692-1.76c.29.934.69 1.777 1.185 2.486l.262.37.043.04-.345-.134-.663-.354-.786-.394-.566-.171.235.394.264.356.248.275.317.276.261.211.344.133.386.221.456.147.128.093.814.65.023.033.083.406-.083.185-.014.159-.001.237.001.183-.067.277h-.03l-.027-.146-.056-.183-.08-.25-.138-.223-.125-.239-.18-.275-.22-.262-.125-.145-.22-.25-.248-.212-.277-.143-.22-.16-.302-.222-.208-.16-.235-.182-.22-.185-.276-.303.041.158.137.224.084.197.152.263.262.501.164.275.208.278.193.237.194.249.234.29.192.275.208.224.22.223.22.278.25.222.22.25-.014.265-.04.328-.025.176-.058-.19-.056-.223-.138-.276-.222-.33-.205-.289-.263-.29-.206-.195-.167-.146-.247-.17-.29-.211-.206-.118-.333-.173-.207-.104-.247-.157-.25-.224-.136-.08.123.183.125.25.206.37.194.341.248.29.221.275.345.317.234.186.359.261.359.199.109.078.346.212.137.131.142.362-.017.058-.057.185-.135.303-.07-.171-.083-.158-.098-.145v-.04c.069-.184 0-.446-.179-.644-.234-.263-.565-.329-.759-.145-.178.185-.137.539.085.79.234.262.579.328.757.143l.03-.024.095.117.083.199.07.223-.044.356-.109.104-.083.13-.028.279-.097.21-.248.512-.482.989-.001-.118.166-.475.07-.41v-.829l-.028-.392-.056-.396-.15-.475-.167-.406-.138-.408v.42l-.027.356-.083.539-.109.553-.07.448-.04.255-.058-.243-.07-.275-.191-.567-.194-.619-.205-.643-.153-.513-.027 1.09-.042.87v.764l-.083.34c-.44-.605-.813-1.42-1.047-2.105l-.043.303c.015.83.043 1.607.25 2.422.18.723.483 1.276 1.034 1.801l.166.317v.25l-.043.289-.26.223-.057.224-.026-.316-.07-.157-.081-.162c.122-.185.094-.497-.112-.746-.233-.303-.607-.435-.841-.276-.22.157-.22.54.014.855.234.303.62.422.842.263.014 0 .07.066.07.066l.08.461-.068.225-.097.288-.137.066.04-.157.056-.344.027-.356c-.357.607-.772 1.054-1.227 1.607l-.344.474.054-.25c.304-1.027.234-2.026.317-3.067-.37.71-.745 1.409-1.034 2.145l-.139.302.042-.34c.043-.593 0-1.173 0-1.752l.014-.5-.139.396c-.357.762-.757 1.433-.936 2.262l-.015.238-.219.263-.372.434-.387.473v-.275c.151-.803.234-1.593.22-2.41-.428.949-1.02 1.804-1.242 2.803l-.04.316-.056.568-.027.011-.014-.183c-.137-.895-.551-1.474-.593-2.698a7.037 7.037 0 0 0-.263 2.382c.055.895.386 1.382.332 1.71l-.075.517-.023.009-.371.25-.551.237-.262.12-.317.077-.108-.038.208-.171c.317-.238.539-.422.787-.738.194-.249.152-1.236-.139-1.433-.234-.172-.565-.475-.731-.737-.068-.106-.123-.106-.26-.078-.182.038-1.118.288-1.574.406-.124.041-.208.107-.221.199a25.56 25.56 0 0 1-.51 2.077l-.014.764-.152-.05.038-.457c-.027-.68-.155-1.222-.74-1.754-.299-.235-.485-.606-.613-.767-.228-.296-.37-.47-.77-.52-.297.027-.268.04-.468.248-.3.197-.57.298-.94.36-.114.01-.128.073-.114.147.044.482-.028 1.334.044 1.557.028.124.513.53.796.716l.154.18-.035.002c-.385-.218-.848-.363-1.258-.553l-.017-.183.045-.28.027-.333-.046-.221.023-.199-.032-.209-.021-.249-.025-.289-.054-.271-.043-.184-.05-.232-.083.008-.024-.13-.137-.266-.142-.173-.103-.058-.135-.265-.214-.022-.177-.261-.096-.124-.22-.113-.059-.18-.283-.173-.18-.302-.235-.269-.28-.307.107.426.017.356-.014.318-.004.082-.002-.003-.1-.19-.08-.137-.106-.11-.168-.157.001.014-.061-.061-.136-.133-.07-.165-.198-.034.013-.178-.086-.27-.008-.225-.083-.284-.026-.356-.13.094-.052.182-.106.136-.147.069-.067.128-.017.237-.048.114-.074.101-.058.127-.105.191-.07.14-.183.2-.01.143a.42.42 0 0 0-.328-.333l.09-.155.096-.067.092-.18.088-.12-.018-.112.094-.045.11-.24.107-.216-.03-.14-.026-.164-.007-.075.053-.21.025-.322.017-.26.038-.335-.015-.162-.026-.19-.09-.194-.05-.19.01-.137-.096-.13-.028-.352-.188.249-.13.19-.272.141-.121.113-.037-.127-.025-.139-.052-.178-.157-.535-.046-.502.032-.448-.404.357-.301.304-.264.231-.17.325-.067.1-.11-.353c0-.014.026-.133.026-.133l-.048-.258-.042-.191-.092-.25-.07-.164-.155-.362-.109-.21-.393-.873-.152.363-.202.256-.018.24-.086.264-.019.265-.068.292.027.272-.003.443-.031.345-.013.417-.001.228.001.009-.047-.153-.297-.881v-.014l-.005-.004-.199-.59-.083-.272.014-.049.04-.249.083-.304.045-.18.054.023c.041.014.083.014.123.014.277 0 .51-.197.51-.448 0-.238-.233-.447-.51-.447-.274 0-.51.209-.51.447 0 .151.1.289.239.365l-.02.083-.083.223-.054.21-.006.063-.271-.889-.146-.692-.064-.295.104-.287.129-.159.296-.065.237-.144.363-.278.296-.3v-.01l.157-.124.218-.3.136-.306.181-.458.099-.356.021-.462c.016-.2.071-.627.07-.624v-.007a1.48 1.48 0 0 0 .018-.119c-.003.014-.037.013-.037 0l-.223.185-.159.158-.201.145-.145.142.119-.234.246-.606.126-.644.099-.5.09-.324.045-.135.04-.128-.121.067-.211.125-.296.231-.094.127-.17.117-.129.138-.097-.005-.127.135-.059.134h-.09l-.222.148-.11.078-.16.18-.201-.333-.185-.443-.057-.31.083-.091.097-.093h.19a.493.493 0 0 0 .444.304.491.491 0 0 0 .482-.49.481.481 0 0 0-.482-.485.484.484 0 0 0-.483.478c0 .003.003.008 0 .008a.174.174 0 0 0-.057.015l-.062.03-.101.062-.153.143-.114-.29-.257-.635-.161.48-.005-.186-.01-.288.05-.25.203-.291.14-.118.467-.04.342-.144.266-.104.254-.12.303-.105.216-.092.366-.276.468-.289.354-.395.19-.342.19-.275.33-.424.139-.223.229-.278-.482.158-.279.04-.254.015-.163.018-.278.128-.214.013-.307.091-.34.092-.152.145-.1.026-.19.25-.166.039s-.14.159-.19.185c-.063.025-.113.091-.113.091l-.114.144-.076.093-.014.08-.063.079-.09.026-.1.21-.088.066-.064.08-.15.25-.051.235-.09.223-.012.121-.226.275.074-.368.063-.197.128-.237.075-.302.216-.304.189-.21.228-.355.101-.265.164-.209.026-.342.05-.475-.044-.23.006-.005.219-.146.029-.015v.003c.07.199.248.329.47.329a.486.486 0 1 0 0-.973.495.495 0 0 0-.5.485c0 .026.002.05.015.077l-.219.148-.019.008.07-.497-.114-.302-.051-.149.043-.025.148-.062.234-.027.195-.125.185.035.222.038.239-.053.12.029.158-.068.225-.067.177.012.194-.035.177-.044.239-.055.172-.177.202-.048.13-.146.193-.087.122-.179.166-.093.17-.08.098-.064-.219-.072-.181-.134-.144-.073-.078-.077-.136-.038-.167-.015-.068-.025-.157.023-.111.011-.07-.092-.123-.04-.152-.004-.188.003-.294.038-.258.074-.351.107-.144.088-.243.145.162-.221.27-.345.452-.263.112-.09.245-.147.09-.15.162-.035.46-.603.318-.538.323-.7.191-.545.26-.339-.278.1-.319.106-.088.074-.12.142-.132.044-.253.185-.292.088-.031.092-.148.032-.157.174-.17.084-.104.042.008.06-.17.074-.023.142-.229.156.025.188-.056.108-.132.144-.099.203-.043.095.036.16-.108.128-.04.12-.017.077-.079.136.03.226-.057.4-.147.361-.118.01.01-.019.096-.188.043-.176.04-.088.043-.214v-.504l.08-.25.03-.364-.056-.127v-.137l-.083-.087-.068-.228-.029-.1-.205-.126-.164-.138-.056-.139-.07.214-.176.127-.042.075-.097.125-.055.151.03.214-.084.202-.014.264.04.1-.026.276.04.351.11.176v.227l.192.25.148.525-.104.19-.083.213-.117.168-.026.07v-.629l-.03-.195-.052-.277-.147.368-.048.235-.125.33-.05.132-.102.119-.063.21-.063.105-.037.158-.09.106-.038.249-.074.172-.026.144-.09.225-.024.209-.039.33.076.197-.05.131-.06.237.08.278v.235l.084.33.087.157.082.237-.023.197-.125.303-.126.302-.063.344-.126.314-.114-.3.077-.33v-.25l.05-.277.05-.21.086-.252v-.3l-.045-.382-.075-.29-.128-.433-.115-.25-.114-.173-.077-.263-.177-.394-.16-.29-.224-.382v-.012l-.1-.252-.02-.078.014.009-.023-.049-.01.303-.035.395-.075.171-.037.132-.085.119v.13l.062.132-.015.106-.011.143-.036.094v.461l.037.104-.037.093v.066l.036.119.024.066-.043.34.045.08v.065l.088.145-.002.25.019.146.167.196.04.158.127.303.164.197.179.197.214.119.09.237.09.224v.514l.105.447-.017.087-.094-.14-.18-.132-.036-.02a.366.366 0 0 0 .085-.28c-.018-.276-.223-.49-.485-.49-.25 0-.468.236-.468.512 0 .278.219.514.468.514.13 0 .242-.062.327-.153l.04.021.166.093.07.118.031.073c-.043.095-.05.24-.05.24l-.136.04.003.292-.094.021-.114.501-.03.196.013.15.011.124-.238-.36-.179-.342-.345-.303-.274-.264-.248-.249-.21-.18-.078-.145-.017-.03-.103-.074-.13-.07-.11-.107-.194-.038-.43-.356-.025.209.041.344.07.473.192.277-.014.105.07.144-.015.264.056.197.014.104.166.172.07.158-.044.172.125.17.027.07-.23-.05-.139-.023-.199-.012-.174-.011-.161-.047-.193-.09L0 23.105l.026.13.139.278.124.289-.006.078.202.296.25.284.243.284.234.234.127.224.114.048.096.145.134.1.115.045.123.084.154.139.134.11.157.113.251.08.099.094.044.055.136.072.098.096.177.14.14.007.251.107.24.052.233.24.16.158.231.986-.148-.12-.123-.184a.355.355 0 0 0 .083-.236c0-.236-.22-.435-.497-.435-.276 0-.51.199-.51.435 0 .25.234.446.51.446a.5.5 0 0 0 .32-.104l.106.092.139.132.137.183.055.105.193.825.194.301.06.186-.165-.143-.262-.199-.198-.062.008-.017c0-.025.013-.066.013-.09 0-.25-.234-.448-.51-.448-.262 0-.496.197-.496.448 0 .249.234.447.495.447.199 0 .357-.1.444-.235l.066.024.234.158.29.198.172.155.026.06.208.868.374.921-.214-.26-.217-.253-.137-.22-.159-.091-.225-.333-.19-.225-.191-.052-.207-.188-.217-.055-.166-.183-.179-.026-.392-.293-.18-.013-.331-.023-.348-.13-.387-.213-.437-.07-.285-.074-.452-.06.155.158.16.249.12.246.156.17.128.126.163.225.12.272.072.15.13.115.098.165.156.155.12.247.175.052.207.212.098.153.228.109.22.2.27.099.152.01.203.227.399.041.385.027.228.095.317.023.36-.014.337.116.09.04.036.142.111.154.297.411.299.37.15.344.207.15.18.334.156.278.138.157.225.272.085.14.127.102.01.007-.013.017-.201-.116-.162-.11-.143-.197-.182-.19-.07-.103-.145-.172-.083-.106-.133-.149-.152-.071-.148-.149-.115-.021-.176-.1-.206-.213-.222-.017-.123-.12-.194-.027-.163-.074-.242-.094-.272-.042-.097.067-.247-.03-.292-.095-.308-.074h-.183l-.37.025-.337-.025-.254-.105-.239.032-.27-.044.144.16.046.09.163.101.097.267.122.147.085.08.007.088.176.089.032.113.145.162.152.047.14.247.191.077.184.174.33.124.1.07.293.107.239.13.31.06.218.065.181.014.131-.017.288.021.12-.029.308.061.11-.056.195-.01.268-.068.428.03.363.075.277.155.156.204.183.145.302.222.123.146-.25-.117-.281-.113-.231-.07c.001-.013.015-.025.017-.05a.45.45 0 0 0-.42-.48.454.454 0 0 0-.487.415.46.46 0 0 0 .422.49.466.466 0 0 0 .445-.267l.312.113.428.188.18.043.32.336.416.333.006.001-.32-.024-.154-.022-.261.023-.133-.084-.242-.085-.095.009-.192.017-.193.017-.105-.075-.243.056-.217.067-.288.025-.183-.052-.222.02-.163.01-.195-.018.357.296.146.09.096.137.317.145.218.125.063.085.107.112.267.044.264.324.192-.018.097.162.251.168.268.052.152.104-.452.116-.16.053-.28.131-.164.026-.212.112-.185.095-.266.13-.344.187-.398.179-.199.098-.246.047.355.101.273.11.29-.012.381.085.18.01.231.1.382.086.15-.014.312.066.22-.006.316-.028.194.01.33-.028.18-.162.395-.073.174-.07.17-.118.2-.084.149-.04.13-.078.147-.223.16-.093.143-.078.188-.069.086-.127.357-.189.06-.02.368.142.305.118.062.027-.262.147-.105.037-.328.042-.007.08-.199.096-.383.218-.185.095-.276.182-.22.166-.13.09-.09.245-.266.116-.107.206-.203.203-.345.48-.066.191-.137.183-.126.13-.042.176-.089.232.285-.066.242-.085.31-.093.118-.077.149-.026.123-.038.216-.058.117-.089.284-.064.134-.052.142-.13.194-.004.128-.104.198-.11.119-.076.135-.037.159-.212.126-.145.12-.063.233-.191.038-.19.036-.24c.217-.347.223-.587.17-1.032l.022-.033.012.006.208.127.796.223-.045.077v.17a.437.437 0 0 0 .025.874c.24 0 .447-.196.447-.439a.426.426 0 0 0-.305-.41l-.011-.146.042-.07.332.203.488.115.24.166a6.7 6.7 0 0 1 1.464.347l.219-.01.028.12-.153.012-.386.106-.511.119-.482.08-.62.065-.028.007c-.071-.168-.173-.216-.302-.18-.36.118-.719.16-1.187.16-.11 0-.143.18-.16.27a.42.42 0 0 1-.159.032c-.454-.054-.495-.028-.813.276-.234.223-.358.42-.55.657l-.262.33-.262.328.302-.223c.317-.21.62-.408 1.022-.461.054 0 .37-.145.37-.145l.167-.104.082-.052.015.005.012.23-.027.396c-.013.289-.151.618-.29.83-.152.288-.386.34-.468.722.593-.197.966-.289 1.132-.565v.17c.012.25.33.512.343.894.139-.288.111-.736.333-1.104l.081-.145.18.185.165.157.137.053.553.025.263.014.399.04h.317l.235-.013.151-.12.276-.262.317-.382.234-.302.11-.173.07-.249.014-.197.014-.223v-.681l.118.006c.031.489.11.964.15 1.453 0 .131.442.686.634.96.194.343.483.106.842.16.317.051.442.13.744-.014l.083-.066.263-.434.222-.67.054-.176.041-.089c.193.277.193.75.276 1.092.07.263.511.474.606 1.091.07-.21.498-.512.524-.722.386.04.814-.013 1.173.119-.179-.382-.51-.514-.827-.738-.083-.052-.124-.681-.235-1.023l.305.102.178.053.165.026.36.052.288.12.456.144-.234-.21-.208-.132-.234-.185-.139-.13-.137-.224-.138-.131-.22-.173-.111-.026-.207-.012-.428-.054s-.069-.007-.072-.012l-.052-.185c-.04-.17-.44-.224-.635-.224-.344 0-.565-.052-.896-.131-.192-.04-.261-.106-.344.079l-.042.093-.097-.053c-.303-.08-.607-.16-.896-.225l-.18-.104-.1-.044.086-.026.197-.064.414-.106.345-.105.22-.105.317-.04.167-.12.343-.143.11.026.112.04c-.083.21 0 .487.234.684.277.237.662.264.84.066.18-.21.099-.553-.178-.79-.276-.223-.648-.25-.827-.052l-.11-.04-.126-.053.193-.105.263-.066.166-.038.317-.107.275.107c.386.143 1.325.736 2.635.893.76.092 1.532.106 2.262.277-.607-.394-1.518-.73-2.236-.943-1.296-.368-2.218-.359-2.592-.452l-.11-.026.019-.053.23-.026h.096l.22-.118.084-.093.234-.014h.509v-.117l-.165.012-.372-.052.18-.118.179-.093.221-.08.165.121c.553.446 1.104.934 1.778 1.196.856.343 1.712.605 2.636.647-.785-.424-1.449-1.054-2.236-1.474-.702-.396-1.213-.369-2.012-.49l-.138-.09.164-.093.245-.076.171.037.11-.026.164-.078.194-.185.18-.093.234-.026.331.238c.58.327 1.116.683 1.75.906.649.238 1.297.276 1.96.448a14.674 14.674 0 0 0-1.793-1.145 6.064 6.064 0 0 0-1.16-.473l-.384-.131h.248l.414.013c.813.039 1.627-.027 2.454-.131a14.14 14.14 0 0 0 1.64-.316 24.739 24.739 0 0 0-1.999-.25c-.787-.054-1.558-.04-2.33-.027l.013-.013c.262-.265.496-.462.704-.778h.192c-.014.264.234.513.58.568.36.066.69-.12.744-.395.043-.277-.219-.553-.577-.607-.319-.052-.608.066-.705.278l-.119-.013.037-.054.179-.394.194-.435.221.146.344.289c.717.342 1.365.617 2.136.828.512.131 1.023.292 1.532.395-.4-.342-.813-.71-1.268-.974l-.676-.368-.26-.182.688.024c.951-.119 1.972-.262 2.84-.658-1.02-.145-1.82-.38-2.993-.38-.842.052-2.43.551-2.43.551l.029-.166.346-.254.387-.5.164-.277.236-.132c.579-.157 1.171-.236 1.738-.461l.853-.328c1.036-.42 1.918-1.145 2.636-1.882-1.09.236-2 .382-2.869.843-.62.328-1.199.67-1.696 1.144l-.22.145-.139.078.083-.21.04-.158.248-.223.25-.197c.317-.211.578-.436.868-.659a6.119 6.119 0 0 0 1.435-1.46c.62-.857.896-1.631 1.214-2.632-.77.776-1.531 1.552-2.235 2.382-.414.513-.466.623-.797 1.176l-.113.1.317-.592.304-.579.11-.185.097-.223.096-.157.083-.147.07-.117.025-.118.028-.133.042-.17v-.065l.055-.08.111-.119.125-.078.12-.105c.141.142.435.137.697-.026.29-.177.424-.477.303-.666-.118-.19-.45-.2-.735-.023-.239.148-.37.374-.342.558l-.222.223.026-.106.07-.145.067-.117.14-.317.233-.249.138-.067.193-.131.152-.066c.65-.29.796-.428 1.377-.835.717-.488 1.096-1.009 1.635-1.68l-.124.051c-1.242.567-2.198.95-2.943 1.923z" fill="#FEFEFE" mask="url(#b)"/>
        <path d="M17.87 31.633v3.401c.035 0 .068.004.1.004 4.921 0 8.92-5.565 8.92-12.407v-.024h-9.02v9.026zM9.053 22.606h8.818V10.23c-4.866.077-8.809 5.597-8.818 12.377M16.271 27.196c-.032.146-.057.294-.137.39.012.092.072-.058.117-.058a1.41 1.41 0 0 0-.058.661c.033-.018.021-.08.04-.116.067.348.263.568.45.8.033-.028-.049-.108-.06-.157.1.132.242.217.395.294-.022-.09-.2-.191-.236-.332.05-.043.102.078.217.038-.368-.28-.044-.906-.08-1.382.019-.047.06.041.06.078.033-.132-.064-.301-.118-.41.007-.065.077.05.058-.04-.22-.242-.31-.707-.668-.758-.126-.019-.239.088-.373.076-.107-.008-.21-.145-.352-.234-.22-.133-.53-.262-.904-.174-.272.064-.523.17-.885.194-.434.03-.827-.06-1.02-.272-.118-.128-.175-.307-.275-.449-.317-.443-1.011-1.113-1.747-.74-.1-.065-.194-.195-.28-.169-.025.075.03.15.03.15s-.101-.055-.172-.014c.005.106.193.164.205.287.01.1-.077.19-.097.312-.008.041.02.087.02.136-.014.418-.231.762-.04 1.013.439.184.426-.402.668-.564.052-.038.115.008.176-.08.3.428-.057 1.377.314 1.754-.067.128-.187.205-.294.312-.071.07-.273.209-.296.293-.032.124.075.316.118.466.048.163.082.302.119.469.212.061.23.318.53.293.055-.157-.053-.31-.079-.449a.926.926 0 0 0-.177.06c-.058-.236-.308-.405-.235-.665.064-.23.5-.163.706-.29.017.206.234.365.256.622.004.049-.028.122-.02.175.04.24.228.439.197.682-.014.113-.13.195-.059.313-.168.055-.217.226-.275.39.118.086.335.092.47.018.069-.18.015-.361.16-.468-.187-.52-.115-1.109-.1-1.732.601.029 1.085-.055 1.434-.273.074.32.585.381.55.72-.014.12-.377.466-.471.566-.071.073-.182.126-.236.212-.032.257-.102.379-.08.663.23.08.376-.08.453-.214-.005-.098-.076-.131-.119-.195.017-.07.116-.055.139-.117.001-.407.615-.464.726-.76.088-.23-.107-.315-.117-.584.307.052.471.414.784.526.194.26.474.751.392 1.208-.027.165-.257.3-.272.507.06.144.323.131.451.058.108-.212-.01-.414.136-.585-.178-.392-.111-.838-.176-1.285-.014-.09-.17-.16-.236-.235-.426-.485.102-.99-.02-1.636.136.042.211.144.256.274.042.003.01-.069.02-.098.123.12.09.474 0 .603.03.043.07-.071.117-.078M22.611 16.36c0-.077-.074-.149-.163-.149-.093 0-.168.075-.168.154 0 .037.019.05.048.11h.237c.028-.06.046-.076.046-.114M22.665 16.476h-.437c-.036 0-.065.038-.065.088 0 .048.03.086.065.086h.437c.034 0 .065-.038.065-.086 0-.05-.031-.088-.065-.088" fill="#333" mask="url(#b)"/>
        <path d="M22.573 17.36h-.284v-.258c0-.097.064-.177.143-.177.077 0 .141.08.141.177v.258zm.284-.791v.09h-.849v-.09h-.284v.266h.141v.533h1.132v-.533h.141v-.266h-.281z" fill="#333" mask="url(#b)"/>
        <path d="m25.46 19.984-.94-.156-1.08.075-2.782-.047-.879.128-.45-.047-.129-.078 2.271-2.278s.242-.212.425-.22c.177-.007 1.142 0 1.142 0s.208-.015.418.236c.22.255 1.856 1.86 2.286 2.282.064.062-.282.105-.282.105M26.225 21.874c-.32 0-.608.177-.928.177-.32 0-.607-.177-.927-.177-.322 0-.61.177-.93.177-.32 0-.606-.177-.928-.177-.32 0-.607.177-.928.177-.32 0-.607-.177-.927-.177-.322 0-.608.177-.93.177-.32 0-.607-.177-.927-.177-.32 0-.608.177-.93.177v.278c.322 0 .61-.177.93-.177.32 0 .607.177.927.177.322 0 .608-.177.93-.177.32 0 .606.177.927.177.321 0 .608-.177.928-.177.322 0 .608.177.928.177.32 0 .608-.177.93-.177.32 0 .607.177.927.177.32 0 .608-.177.928-.177.228 0 .44.089.66.14 0-.093 0-.187-.004-.279-.219-.052-.43-.139-.656-.139M24.369 21.597c.321 0 .61.175.93.175.32 0 .606-.175.926-.175.223 0 .428.082.64.134a8.692 8.692 0 0 0-.016-.283c-.205-.051-.407-.13-.624-.13-.32 0-.606.178-.927.178-.32 0-.608-.179-.93-.179-.32 0-.608.179-.928.179-.32 0-.606-.179-.927-.179-.321 0-.608.179-.93.179-.32 0-.606-.179-.926-.179-.322 0-.608.179-.93.179-.32 0-.607-.179-.927-.179-.32 0-.608.179-.93.179v.276c.322 0 .61-.175.93-.175.32 0 .607.175.927.175.322 0 .608-.175.93-.175.32 0 .606.175.927.175.321 0 .608-.175.93-.175.32 0 .606.175.926.175.32 0 .608-.175.929-.175M25.298 20.939c-.32 0-.608-.176-.93-.176-.32 0-.607.176-.927.176-.32 0-.608-.176-.93-.176-.32 0-.605.176-.927.176-.32 0-.608-.176-.928-.176-.322 0-.607.176-.928.176-.32 0-.608-.176-.929-.176-.32 0-.606.176-.928.176v.28c.322 0 .608-.18.928-.18.32 0 .608.18.929.18.321 0 .606-.18.928-.18.32 0 .608.18.928.18.322 0 .607-.18.927-.18.322 0 .61.18.93.18.32 0 .607-.18.927-.18.322 0 .61.18.93.18.32 0 .608-.18.928-.18.208 0 .402.074.6.127l-.024-.285c-.19-.05-.377-.118-.576-.118-.32 0-.608.176-.928.176M25.298 20.384c-.32 0-.608-.177-.93-.177-.32 0-.607.177-.927.177-.32 0-.608-.177-.93-.177-.32 0-.605.177-.927.177-.32 0-.608-.177-.928-.177-.322 0-.607.177-.928.177-.32 0-.608-.177-.929-.177-.32 0-.606.177-.928.177v.278c.322 0 .608-.179.928-.179.32 0 .608.179.929.179.321 0 .606-.179.928-.179.32 0 .608.179.928.179.322 0 .607-.179.927-.179.322 0 .61.179.93.179.32 0 .607-.179.927-.179.322 0 .61.179.93.179.32 0 .608-.179.928-.179.188 0 .365.061.542.112-.01-.097-.023-.193-.036-.29-.166-.046-.33-.098-.506-.098-.32 0-.608.177-.928.177" fill="#333" mask="url(#b)"/>
        <path d="M25.298 19.827c-.32 0-.608-.177-.93-.177-.32 0-.607.177-.927.177-.32 0-.608-.177-.93-.177-.32 0-.605.177-.927.177-.32 0-.608-.177-.928-.177-.322 0-.607.177-.928.177-.32 0-.608-.177-.929-.177-.32 0-.606.177-.928.177v.278c.322 0 .608-.177.928-.177.32 0 .608.177.929.177.321 0 .606-.177.928-.177.32 0 .608.177.928.177.322 0 .607-.177.927-.177.322 0 .61.177.93.177.32 0 .607-.177.927-.177.322 0 .61.177.93.177.32 0 .608-.177.928-.177.16 0 .312.045.463.089a8.868 8.868 0 0 0-.047-.292 1.487 1.487 0 0 0-.416-.075c-.32 0-.608.177-.928.177" fill="#333" mask="url(#b)"/>
        <path d="M26.774 22.64c0 6.766-3.957 12.27-8.821 12.27-4.865 0-8.822-5.504-8.822-12.27 0-6.764 3.957-12.268 8.822-12.268 4.864 0 8.821 5.504 8.821 12.269m.359 0c0-3.374-.95-6.549-2.674-8.94-1.735-2.402-4.046-3.725-6.506-3.725s-4.771 1.323-6.506 3.726c-1.725 2.39-2.674 5.565-2.674 8.939 0 3.376.95 6.55 2.674 8.94 1.735 2.401 4.046 3.726 6.506 3.726s4.77-1.325 6.506-3.726c1.724-2.39 2.674-5.564 2.674-8.94" fill="#FEFEFE" mask="url(#b)"/>
        <path d="M11.311 17.002v3.17h-.902l.902-3.17zm1.107 3.17h-.899v-3.165l.9 3.165zm1.415-5.826c0 .096-.08.177-.177.177a.179.179 0 0 1-.177-.177.177.177 0 1 1 .354 0zm1.961 2.66v3.166h-.9l.9-3.165zm1.109 3.166H16v-3.17l.902 3.17zm.217-.002-.002-.004-.97-3.366h.003a.03.03 0 0 0 .03-.029v-.48a.025.025 0 0 0-.01-.02.03.03 0 0 0-.02-.01c-.004 0-.372.01-.488 0a.055.055 0 0 0-.015.003l-.038.019c-.432.21-.612.299-1.703-.008-.037-.272-.059-1.285-.062-1.541a.43.43 0 1 0-.379 0c-.003.159-.021 1.254-.061 1.541-1.09.307-1.27.22-1.701.008l-.04-.019a.055.055 0 0 0-.016-.003c-.114.01-.483 0-.486 0-.01 0-.016.003-.02.01-.008.004-.01.012-.01.02v.48a.03.03 0 0 0 .03.03h.003l-.973 3.37c0 .004-.003.042.023.138 0 .005.003.01.006.012.351.396.75.607 1.189.63a.013.013 0 0 0 .01 0c.438-.025.838-.236 1.187-.63.004-.003.005-.007.007-.012a.4.4 0 0 0 .02-.143l-.97-3.366h1.71v.599l.251.966c0 .009.005.018.014.023.005.003.01.006.015.006.016.001.027-.008.031-.022.002-.001.002-.004.002-.007l.25-.966c.002-.003.002-.006.002-.007V16.8h1.71l-.97 3.37a.437.437 0 0 0 .02.14c0 .004.004.008.007.011.35.396.75.607 1.19.63l.003.001.006-.001c.439-.025.838-.236 1.187-.63.003-.003.005-.007.006-.012.025-.095.022-.133.022-.139zM25.39 26c-.091-.414-.444-.428-.616-.333-.216-.095-.475-.125-.773-.1-.56.039-.873.297-1.469.31-1.393-.141-1.315-.4-1.601-.413-.273-.01-.43.092-.69.13h-.064c.013-.116.026-.258-.051-.31-.145-.103-.313-.078-.456-.038.156.051.377.09.299.207-.13.205-.533.18-.624.129l-.144-.09c-.09 0-.233-.014-.324.012a.36.36 0 0 0-.17.142c-.338 0-.298-.336-.298-.569-.143.27-.143.414-.04.699l.26.218-.103.052-.221.09c.143.116.234.128.443.154l-.014.298-.052.089c0 .233.038.284.246.388.351 0 .704.05.82.426.325.258.455.477.598.864.08.05.146.101.2.155h-.005l.005.001c.13.133.148.281.148.512l-.026.154-.1.171c-.067.078-.127.242-.114.294 0 .024.04.023.144.023l.11.009c.035-.023.075-.171.11-.232 0 0 .085-.097.111-.211.024-.115.004-.304.004-.38 0-.133.02-.161.02-.161l.107.232v.156l-.038.232c-.117.258-.233.36-.196.413.04.026.157.012.339.012l.09-.18c.08-.207.013-.413-.012-.633l.077-.282.04-.259c.364-.04.696-.105.961-.17.411-.07.265-.488 1.303-.58h.012c.078.35.235.556.365.867l.063.123v.12c-.091.218-.07.392-.186.6l-.136.099-.081.148-.014.118.195.006c.143-.014.016-.041.145-.131l.038-.15c.13-.162.202-.365.236-.643l.09-.162.078-.09.061-.176c.014.014.117.21.204.31.09.306.067.332-.016.616-.032.157-.048.232-.138.26-.056.018.009.161.009.161l.27.006c.102-.297.133-.172.149-.386-.053-.194.02-.391.007-.585.079-.258-.049-.463-.052-.555-.003-.06.04-.168.04-.168l.012-.206.039-.334.014-.324.038-.387s.13-.455-.034-.759a1.223 1.223 0 0 0-.138-.204s.089-.039.177-.01c.17.055.158.281.172.425.03.293-.01 1.09-.125 1.722 0 0-.092.166-.077.27.017.105.14.281.039.495-.039.082 0 .13 0 .13l.043.223c.202-.32.26-.481.152-1.015.082-1.532.208-1.484.114-2.045" fill="#FEFEFE" mask="url(#b)"/>
    </g>
</svg>
